<svg xmlns="http://www.w3.org/2000/svg" xmlns:xlink="http://www.w3.org/1999/xlink" version="1.1">
  <defs>

    <g id="icon-home">
      <path d="M16 9.226l-8-6.21-8 6.21v-2.532l8-6.21 8 6.21zM14 9v6h-4v-4h-4v4h-4v-6l6-4.5z"></path>
    </g>

    <g id="icon-search">
      <path d="M15.504 13.616l-3.79-3.223c-0.392-0.353-0.811-0.514-1.149-0.499 0.895-1.048 1.435-2.407 1.435-3.893 0-3.314-2.686-6-6-6s-6 2.686-6 6c0 3.314 2.686 6 6 6 1.486 0 2.845-0.54 3.893-1.435-0.016 0.338 0.146 0.757 0.499 1.149l3.223 3.79c0.552 0.613 1.453 0.665 2.003 0.115s0.498-1.452-0.115-2.003zM6 10c-2.209 0-4-1.791-4-4s1.791-4 4-4 4 1.791 4 4-1.791 4-4 4z"></path>
    </g>

    <g id="icon-eye">
      <path d="M8 3c-3.489 0-6.514 2.032-8 5 1.486 2.968 4.511 5 8 5s6.514-2.032 8-5c-1.486-2.968-4.511-5-8-5zM11.945 5.652c0.94 0.6 1.737 1.403 2.335 2.348-0.598 0.946-1.395 1.749-2.335 2.348-1.181 0.753-2.545 1.152-3.944 1.152s-2.763-0.398-3.945-1.152c-0.94-0.6-1.737-1.403-2.335-2.348 0.598-0.946 1.395-1.749 2.335-2.348 0.061-0.039 0.123-0.077 0.185-0.114-0.156 0.427-0.241 0.888-0.241 1.369 0 2.209 1.791 4 4 4s4-1.791 4-4c0-0.481-0.085-0.942-0.241-1.369 0.062 0.037 0.124 0.075 0.185 0.114zM8 6.406c0 0.828-0.672 1.5-1.5 1.5s-1.5-0.672-1.5-1.5 0.672-1.5 1.5-1.5 1.5 0.672 1.5 1.5z"></path>
    </g>

    <g id="icon-info">
      <path d="M8 0c-4.418 0-8 3.582-8 8s3.582 8 8 8 8-3.582 8-8-3.582-8-8-8zM8 14.5c-3.59 0-6.5-2.91-6.5-6.5s2.91-6.5 6.5-6.5 6.5 2.91 6.5 6.5-2.91 6.5-6.5 6.5zM7 4h2v2h-2zM10 12h-4v-1h1v-3h-1v-1h3v4h1z"></path>
    </g>

    <g id="icon-user">
      <path d="M11.856 11.558c-1.972-0.718-2.602-1.325-2.602-2.623 0-0.779 0.602-0.525 0.866-1.952 0.11-0.592 0.642-0.010 0.744-1.361 0-0.538-0.29-0.673-0.29-0.673s0.148-0.798 0.206-1.41c0.070-0.765-0.442-2.739-3.179-2.739s-3.25 1.974-3.178 2.739c0.058 0.613 0.206 1.41 0.206 1.41s-0.291 0.134-0.291 0.673c0.102 1.351 0.634 0.769 0.743 1.361 0.265 1.427 0.867 1.173 0.867 1.952 0 1.298-0.63 1.905-2.602 2.623-1.979 0.72-3.264 1.455-3.264 1.957s0 1.684 0 1.684h15.040c0 0 0-1.183 0-1.684s-1.286-1.236-3.264-1.957z"></path>
    </g>

    <g id="icon-menu">
      <path d="M0 2h16v2H0V2zm0 5h16v2H0V7zm0 5h16v2H0v-2z"/>
    </g>

    <g id="icon-left-arrow">
      <path d="M15.36 8c0-4.065-3.295-7.36-7.36-7.36s-7.36 3.295-7.36 7.36c0 4.066 3.295 7.361 7.36 7.361s7.36-3.296 7.36-7.361zM2.24 8c0-3.181 2.579-5.76 5.76-5.76s5.76 2.579 5.76 5.76c0 3.182-2.579 5.761-5.76 5.761s-5.76-2.579-5.76-5.761zM11.080 9.44v-2.88h-3.272v-1.8l-3.048 3.24 3.048 3.24v-1.8h3.272z"/>
    </g>

    <g id="icon-popout">
      <path d="M9.75 1.5c-0 0-0 0-0 0h-4.5c-0.414 0-0.75 0.336-0.75 0.75s0.336 0.75 0.75 0.75h2.689l-6.22 6.22c-0.293 0.293-0.293 0.768 0 1.061 0.146 0.146 0.338 0.22 0.53 0.22s0.384-0.073 0.53-0.22l6.22-6.22v2.689c0 0.414 0.336 0.75 0.75 0.75s0.75-0.336 0.75-0.75v-5.25h-0.75z"></path>
    </g>

    <g id="icon-download">
      <path d="M8 15.5l7.5-7.5h-4.5v-8h-6v8h-4.5z"></path>
    </g>

    <g id="ga-mark-solid">
      <path d="M16 26.67l-7.11-7.11L0 28.45v0.89c0 0.1 0.01 0.2 0.02 0.3C0.17 30.97 1.3 32 2.67 32h26.67c1.37 0 2.5-1.03 2.65-2.37 0.01-0.1 0.02-0.2 0.02-0.3V10.67L16 26.67zM29.33 0L29.33 0h0H2.67 2.67h0C1.19 0 0 1.19 0 2.67v18.67l8.89-8.89L16 19.56 32 3.56V2.67C32 1.19 30.81 0 29.33 0"/>
    </g>

    <g id="ga-developer-logo">
      <g id="ga-developer-logo-mark">
        <circle fill="#f7991c" cx="31.54" cy="31.54" r="31.54"/>
        <path fill="#f05721" d="M63.08 31.54c0-0.61-0.02-1.22-0.05-1.81L50.98 17.68 18.48 50l13.08 13.08C48.97 63.07 63.08 48.96 63.08 31.54z"/>
        <path fill="#FFFFFF" d="M42.3 45.81c0.84-0.58 1.65-1.22 2.39-1.96 0.75-0.74 1.39-1.54 1.97-2.38l5.21 0.93 1.67-0.93 1.98-7.94 -1.01-1.72 -4.93-2.03c-0.21-2.1-0.81-4.16-1.76-6.12l3.2-4.02 -0.04-1.95 -5.98-6.01 -1.94-0.05 -4.05 3.18c-1.96-0.94-4.02-1.55-6.11-1.79L30.89 8.07l-1.71-1.02L21.23 8.98l-0.94 1.67 0.9 5.21c-0.84 0.59-1.64 1.23-2.39 1.97 -0.74 0.74-1.39 1.54-1.97 2.37l-5.21-0.92 -1.67 0.93 -1.97 7.94 1.01 1.72 4.94 2.04c0.22 2.09 0.82 4.16 1.76 6.11l-3.2 4.02 0.04 1.95 5.98 6.01 1.95 0.05 4.04-3.17c1.96 0.95 4.03 1.57 6.12 1.8l2.01 4.93 1.71 1.02 7.96-1.94 0.94-1.66L42.3 45.81z"/>
        <path fill="#f05721" d="M38.75 30.84c0 3.86-3.14 7-7.01 7 -3.87 0-7.01-3.14-7.01-7 0-3.87 3.14-7.01 7.01-7.01C35.61 23.83 38.75 26.97 38.75 30.84z"/>
        <path fill="#f7991c" d="M26.85 35.85c-1.31-1.28-2.12-3.05-2.12-5.01 0-3.87 3.14-7.01 7.01-7.01 1.95 0 3.75 0.83 5.02 2.12l3.02-3.02c-2.14-2.14-4.98-3.3-8.04-3.3 -6.19 0-11.21 5.02-11.21 11.21 0 3.13 1.29 5.98 3.37 8.01L26.85 35.85z"/>
      </g>
      <g id="ga-developer-logo-text">
        <path d="M230.37 36.09h8.45l-3.22-8.52c-0.27-0.67-0.59-1.59-0.97-2.78 -0.29 1.03-0.61 1.97-0.95 2.81L230.37 36.09zM239.37 37.57h-9.6l-3.3 8.34h-1.83l9.5-23.73h1.05l9.31 23.73h-1.86L239.37 37.57zM259.38 45.92V34.52c0-1.77-0.37-3.05-1.12-3.86 -0.74-0.8-1.9-1.2-3.46-1.2 -2.1 0-3.64 0.53-4.62 1.59 -0.97 1.06-1.46 2.78-1.46 5.17v9.7h-1.6V28.34h1.36l0.31 2.41h0.1c1.14-1.83 3.17-2.75 6.1-2.75 3.99 0 5.98 2.14 5.98 6.42v11.49H259.38zM270.52 44.78c1.87 0 3.35-0.53 4.44-1.61 1.08-1.07 1.63-2.56 1.63-4.47v-1.73l-3.07 0.13c-2.47 0.12-4.23 0.5-5.28 1.15 -1.05 0.65-1.57 1.67-1.57 3.05 0 1.1 0.34 1.95 1.01 2.56C268.34 44.48 269.29 44.78 270.52 44.78M276.99 45.92l-0.41-2.78h-0.13c-0.88 1.13-1.79 1.93-2.72 2.4 -0.93 0.47-2.03 0.7-3.31 0.7 -1.72 0-3.07-0.44-4.03-1.33 -0.96-0.88-1.44-2.11-1.44-3.67 0-1.71 0.71-3.05 2.14-3.99 1.43-0.95 3.49-1.45 6.2-1.5l3.35-0.1v-1.16c0-1.67-0.34-2.93-1.02-3.78 -0.68-0.85-1.77-1.27-3.28-1.27 -1.63 0-3.31 0.45-5.06 1.36l-0.6-1.39c1.93-0.9 3.84-1.36 5.72-1.36 1.93 0 3.37 0.5 4.33 1.5 0.95 1 1.43 2.57 1.43 4.69v11.69H276.99z"/>
        <rect x="283.53" y="20.76" width="1.6" height="25.15"/>
        <path d="M287.74 28.34h1.65l3.72 9.86c1.13 3.03 1.85 5.07 2.15 6.13h0.1c0.45-1.39 1.19-3.46 2.21-6.22l3.72-9.76h1.65l-7.87 20.42c-0.63 1.66-1.17 2.78-1.6 3.36 -0.43 0.58-0.94 1.02-1.51 1.31 -0.58 0.29-1.27 0.44-2.09 0.44 -0.61 0-1.3-0.11-2.05-0.34v-1.39c0.62 0.18 1.3 0.26 2.02 0.26 0.55 0 1.03-0.13 1.45-0.39 0.42-0.26 0.8-0.66 1.14-1.2 0.34-0.55 0.73-1.41 1.18-2.59 0.45-1.18 0.74-1.95 0.87-2.31L287.74 28.34zM310.19 44.82c1.01 0 1.9-0.09 2.65-0.26v1.29c-0.78 0.26-1.67 0.39-2.68 0.39 -1.55 0-2.7-0.41-3.43-1.24 -0.74-0.83-1.11-2.13-1.11-3.91V29.73h-2.6v-0.94l2.6-0.73 0.81-3.98h0.82v4.25h5.16v1.39h-5.16v11.12c0 1.35 0.24 2.34 0.71 2.99C308.43 44.49 309.18 44.82 310.19 44.82M317.91 45.92h-1.6V28.34h1.6V45.92zM316.08 23.46c0-1.03 0.34-1.55 1.02-1.55 0.33 0 0.6 0.13 0.79 0.4 0.19 0.27 0.28 0.65 0.28 1.15 0 0.49-0.1 0.87-0.28 1.15 -0.19 0.28-0.45 0.42-0.78 0.42C316.42 25.03 316.08 24.51 316.08 23.46M330.48 46.24c-2.51 0-4.48-0.79-5.9-2.38 -1.42-1.58-2.13-3.79-2.13-6.63 0-2.91 0.74-5.17 2.21-6.8 1.48-1.62 3.5-2.43 6.06-2.43 1.52 0 2.98 0.27 4.36 0.79l-0.44 1.43c-1.52-0.51-2.84-0.76-3.96-0.76 -2.15 0-3.79 0.67-4.9 2 -1.11 1.33-1.66 3.25-1.66 5.75 0 2.37 0.56 4.23 1.66 5.57 1.11 1.34 2.66 2.01 4.66 2.01 1.6 0 3.08-0.28 4.45-0.86v1.49C333.77 45.96 332.3 46.24 330.48 46.24M349.75 41.34c0 1.57-0.6 2.78-1.79 3.63 -1.2 0.85-2.89 1.27-5.09 1.27 -2.35 0-4.21-0.36-5.59-1.08v-1.73c1.77 0.89 3.63 1.33 5.59 1.33 1.74 0 3.05-0.29 3.95-0.86 0.9-0.58 1.35-1.35 1.35-2.3 0-0.88-0.36-1.63-1.07-2.23 -0.72-0.6-1.9-1.19-3.53-1.78 -1.76-0.63-2.99-1.18-3.7-1.64 -0.71-0.46-1.25-0.97-1.61-1.55 -0.36-0.58-0.54-1.28-0.54-2.11 0-1.31 0.55-2.35 1.66-3.12 1.11-0.76 2.65-1.14 4.63-1.14 1.9 0 3.7 0.36 5.4 1.07l-0.6 1.46c-1.72-0.71-3.32-1.07-4.8-1.07 -1.43 0-2.57 0.24-3.41 0.71 -0.84 0.47-1.26 1.13-1.26 1.97 0 0.92 0.33 1.65 0.98 2.2 0.65 0.55 1.93 1.16 3.82 1.84 1.58 0.57 2.74 1.08 3.46 1.54 0.72 0.46 1.26 0.98 1.63 1.56C349.57 39.87 349.75 40.55 349.75 41.34M178.88 39.1c1-1.01 1.09-2.4 1.09-3.18 0-3.13-1.87-8.01-5.47-8.01 -1.13 0-2.35 0.56-3.04 1.43 -0.74 0.92-0.96 2.08-0.96 3.23 0 2.92 1.69 7.76 5.43 7.76C177 40.33 178.18 39.8 178.88 39.1M177.61 47.38c-0.34-0.04-0.56-0.04-0.99-0.04 -0.4 0-2.74 0.08-4.56 0.69 -0.95 0.36-3.73 1.41-3.73 4.49 0 3.09 3 5.32 7.65 5.32 4.16 0 6.37-2.01 6.37-4.71C182.35 50.91 180.92 49.74 177.61 47.38M180.7 28.03c0.99 0.83 3.08 2.57 3.08 5.88 0 3.23-1.83 4.75-3.65 6.19 -0.56 0.57-1.21 1.17-1.21 2.14 0 0.95 0.65 1.47 1.13 1.87l1.56 1.22c1.91 1.61 3.65 3.09 3.65 6.1 0 4.09-3.95 8.23-11.42 8.23 -6.29 0-9.33-3.01-9.33-6.23 0-1.56 0.78-3.78 3.34-5.31 2.69-1.65 6.34-1.87 8.29-2.01 -0.6-0.78-1.31-1.61-1.31-2.96 0-0.74 0.22-1.18 0.44-1.69 -0.48 0.04-0.95 0.08-1.39 0.08 -4.6 0-7.2-3.45-7.2-6.84 0-2.01 0.92-4.22 2.78-5.84 2.47-2.05 5.42-2.4 7.77-2.4h8.94l-2.78 1.57H180.7zM158.79 43.16c1.04-1.39 1.31-3.12 1.31-4.83 0-3.83-1.82-11.13-7.19-11.13 -1.43 0-2.86 0.56-3.9 1.48 -1.69 1.52-2 3.43-2 5.31 0 4.31 2.13 11.4 7.37 11.4C156.06 45.38 157.79 44.56 158.79 43.16M153.37 46.68c-6.89 0-10.57-5.4-10.57-10.26 0-5.7 4.63-10.57 11.22-10.57 6.36 0 10.35 5 10.35 10.26C164.38 41.25 160.44 46.68 153.37 46.68M135.3 43.16c1.05-1.39 1.3-3.12 1.3-4.83 0-3.83-1.82-11.13-7.19-11.13 -1.43 0-2.85 0.56-3.9 1.48 -1.69 1.52-1.99 3.43-1.99 5.31 0 4.31 2.12 11.4 7.36 11.4C132.57 45.38 134.31 44.56 135.3 43.16M129.89 46.68c-6.89 0-10.57-5.4-10.57-10.26 0-5.7 4.63-10.57 11.22-10.57 6.37 0 10.36 5 10.36 10.26C140.9 41.25 136.95 46.68 129.89 46.68M116 46l-6.23 1.44c-2.53 0.39-4.79 0.75-7.19 0.75 -12.02 0-16.59-8.89-16.59-15.84 0-8.48 6.49-16.36 17.59-16.36 2.35 0 4.63 0.35 6.67 0.92 3.26 0.92 4.79 2.07 5.74 2.71l-3.61 3.45 -1.53 0.35 1.09-1.75c-1.48-1.44-4.18-4.1-9.32-4.1 -6.89 0-12.07 5.24-12.07 12.9 0 8.22 5.93 15.96 15.42 15.96 2.79 0 4.23-0.57 5.53-1.09v-7.04l-6.58 0.35 3.48-1.87h9.23l-1.12 1.09c-0.31 0.26-0.35 0.35-0.44 0.69 -0.04 0.4-0.09 1.68-0.09 2.12V46zM194.47 44.75c-1.44-0.14-1.74-0.4-1.74-2.1v-0.49V17.89c0.01-0.1 0.02-0.19 0.03-0.28 0.18-1.54 0.62-1.79 1.96-2.59h-6.23l-3.27 1.58h3.34v0.02l0-0.01v25.55 1.45c0 0.88-0.17 1-1.18 2.31h7.71l1.63-0.96C195.95 44.88 195.21 44.83 194.47 44.75M208.13 32.2c0.82-0.31 1.25-0.56 1.25-1.17 0-1.75-1.95-3.75-4.28-3.75 -1.73 0-4.98 1.36-4.98 6.05 0 0.74 0.09 1.52 0.13 2.3L208.13 32.2zM212.2 45.14c-0.47 0.26-0.95 0.57-1.43 0.79 -1.42 0.66-2.89 0.82-4.19 0.82 -1.38 0-3.54-0.08-5.76-1.7 -3.06-2.16-4.41-5.9-4.41-9.16 0-6.73 5.46-10.03 9.92-10.03 1.56 0 3.17 0.4 4.46 1.21 2.16 1.43 2.73 3.3 3.03 4.3l-10.16 4.13 -3.34 0.26c1.08 5.52 4.81 8.73 8.92 8.73 2.2 0 3.8-0.78 5.27-1.51L212.2 45.14z"/>
        <rect x="374" y="12" width="1" height="39"/>
        <path d="M417.11 34.15c0 4.01-1.05 7.04-3.15 9.1 -2.1 2.06-5.19 3.08-9.27 3.08h-5.72V22.42h6.46c3.82 0 6.72 1 8.71 2.99C416.11 27.41 417.11 30.32 417.11 34.15zM415.29 34.21c0-3.42-0.87-6-2.61-7.73 -1.74-1.73-4.29-2.59-7.66-2.59h-4.4v20.96h3.96C411.72 44.86 415.29 41.31 415.29 34.21zM429.37 46.65c-2.58 0-4.6-0.79-6.04-2.39 -1.44-1.59-2.17-3.82-2.17-6.69 0-2.83 0.7-5.1 2.09-6.81 1.4-1.71 3.28-2.56 5.64-2.56 2.09 0 3.74 0.73 4.95 2.19 1.21 1.46 1.82 3.45 1.82 5.95v1.31h-12.8c0.02 2.44 0.59 4.31 1.71 5.59 1.12 1.29 2.72 1.93 4.8 1.93 1.01 0 1.91-0.07 2.67-0.21 0.77-0.14 1.74-0.45 2.92-0.91v1.47c-1 0.44-1.93 0.73-2.78 0.89C431.33 46.57 430.39 46.65 429.37 46.65zM428.9 29.65c-1.71 0-3.08 0.56-4.12 1.69 -1.03 1.13-1.64 2.76-1.81 4.88h10.99c0-2.06-0.45-3.67-1.34-4.83C431.71 30.23 430.48 29.65 428.9 29.65zM462.78 46.33V34.67c0-1.73-0.34-3-1.01-3.79 -0.68-0.8-1.71-1.19-3.11-1.19 -1.82 0-3.17 0.5-4.04 1.5 -0.87 1-1.31 2.58-1.31 4.72v10.42h-1.65V34.18c0-3-1.37-4.5-4.12-4.5 -1.86 0-3.22 0.54-4.07 1.63 -0.85 1.09-1.28 2.82-1.28 5.21v9.81h-1.62V28.55h1.34l0.34 2.44h0.1c0.49-0.88 1.19-1.57 2.09-2.05 0.9-0.48 1.9-0.73 2.99-0.73 2.8 0 4.6 1.05 5.4 3.16h0.07c0.58-1.01 1.35-1.79 2.33-2.34 0.98-0.55 2.08-0.82 3.33-0.82 1.94 0 3.4 0.52 4.37 1.55 0.97 1.04 1.46 2.68 1.46 4.94v11.63H462.78zM484.83 37.42c0 2.9-0.7 5.17-2.11 6.79 -1.41 1.63-3.35 2.44-5.82 2.44 -1.56 0-2.93-0.38-4.12-1.13 -1.19-0.75-2.1-1.83-2.73-3.24 -0.63-1.41-0.95-3.03-0.95-4.87 0-2.9 0.7-5.16 2.11-6.78 1.41-1.62 3.34-2.43 5.79-2.43 2.44 0 4.36 0.82 5.75 2.46C484.14 32.31 484.83 34.56 484.83 37.42zM470.8 37.42c0 2.44 0.54 4.35 1.61 5.72 1.07 1.37 2.59 2.05 4.55 2.05 1.96 0 3.48-0.68 4.55-2.05 1.07-1.37 1.61-3.27 1.61-5.71 0-2.45-0.54-4.36-1.63-5.71 -1.08-1.35-2.61-2.03-4.57-2.03 -1.96 0-3.48 0.67-4.54 2.02C471.34 33.05 470.8 34.95 470.8 37.42zM500.77 41.7c0 1.59-0.6 2.82-1.82 3.67 -1.21 0.86-2.93 1.28-5.15 1.28 -2.38 0-4.26-0.36-5.66-1.09v-1.75c1.79 0.89 3.67 1.34 5.66 1.34 1.76 0 3.09-0.29 4-0.87 0.91-0.58 1.37-1.36 1.37-2.33 0-0.89-0.36-1.65-1.09-2.26 -0.72-0.61-1.91-1.21-3.57-1.8 -1.78-0.64-3.02-1.19-3.74-1.66 -0.72-0.46-1.26-0.99-1.63-1.57 -0.36-0.58-0.55-1.29-0.55-2.13 0-1.33 0.56-2.38 1.68-3.16 1.12-0.77 2.68-1.16 4.68-1.16 1.92 0 3.74 0.36 5.46 1.08l-0.6 1.47c-1.74-0.72-3.36-1.08-4.86-1.08 -1.45 0-2.6 0.24-3.45 0.72 -0.85 0.48-1.28 1.15-1.28 2 0 0.93 0.33 1.67 0.99 2.22 0.66 0.56 1.95 1.18 3.87 1.86 1.6 0.58 2.77 1.1 3.5 1.56 0.73 0.46 1.28 0.99 1.64 1.58C500.59 40.21 500.77 40.91 500.77 41.7zM513.09 40.26c0-1.5 0.4-2.78 1.2-3.84 0.8-1.06 2.3-2.17 4.49-3.35l-1.23-1.34c-0.72-0.77-1.25-1.53-1.6-2.27 -0.35-0.74-0.52-1.51-0.52-2.32 0-1.56 0.52-2.8 1.56-3.71 1.04-0.92 2.44-1.37 4.2-1.37 1.69 0 3.03 0.44 4.01 1.33 0.99 0.88 1.48 2.1 1.48 3.66 0 1.15-0.38 2.19-1.14 3.15 -0.76 0.95-2.14 2.01-4.14 3.18l7.39 7.47c0.66-0.78 1.23-1.64 1.7-2.57 0.47-0.93 0.88-2.02 1.23-3.29h1.57c-0.69 2.68-1.83 5-3.42 6.97l4.35 4.38h-2.21l-3.15-3.22c-1 0.98-1.9 1.7-2.68 2.15 -0.78 0.45-1.64 0.8-2.57 1.04 -0.93 0.24-1.99 0.36-3.18 0.36 -2.28 0-4.07-0.56-5.37-1.68C513.74 43.85 513.09 42.28 513.09 40.26zM520.53 45.18c1.4 0 2.67-0.24 3.83-0.71 1.16-0.47 2.3-1.27 3.43-2.39l-7.9-7.93c-1.48 0.78-2.55 1.45-3.21 2 -0.66 0.55-1.14 1.15-1.44 1.79 -0.3 0.64-0.45 1.4-0.45 2.26 0 1.56 0.51 2.78 1.52 3.66C517.32 44.74 518.73 45.18 520.53 45.18zM517.17 27.1c0 0.86 0.22 1.66 0.65 2.39 0.44 0.73 1.26 1.68 2.49 2.85 1.73-0.93 2.94-1.79 3.61-2.6 0.68-0.81 1.01-1.73 1.01-2.76 0-1.02-0.34-1.86-1.01-2.49 -0.68-0.64-1.59-0.96-2.75-0.96 -1.24 0-2.22 0.32-2.94 0.95C517.53 25.1 517.17 25.98 517.17 27.1zM553.26 46.33h-1.68V23.99h-7.77v-1.57h17.22v1.57h-7.77V46.33zM578.87 37.42c0 2.9-0.7 5.17-2.11 6.79 -1.41 1.63-3.35 2.44-5.82 2.44 -1.56 0-2.93-0.38-4.12-1.13 -1.19-0.75-2.1-1.83-2.73-3.24 -0.63-1.41-0.95-3.03-0.95-4.87 0-2.9 0.7-5.16 2.11-6.78 1.41-1.62 3.34-2.43 5.79-2.43 2.44 0 4.36 0.82 5.75 2.46C578.17 32.31 578.87 34.56 578.87 37.42zM564.84 37.42c0 2.44 0.54 4.35 1.61 5.72 1.07 1.37 2.59 2.05 4.55 2.05 1.96 0 3.48-0.68 4.55-2.05 1.07-1.37 1.61-3.27 1.61-5.71 0-2.45-0.54-4.36-1.63-5.71 -1.08-1.35-2.61-2.03-4.57-2.03 -1.96 0-3.48 0.67-4.54 2.02C565.37 33.05 564.84 34.95 564.84 37.42zM598.49 37.42c0 2.9-0.7 5.17-2.11 6.79 -1.41 1.63-3.35 2.44-5.82 2.44 -1.56 0-2.93-0.38-4.12-1.13 -1.19-0.75-2.1-1.83-2.73-3.24 -0.63-1.41-0.95-3.03-0.95-4.87 0-2.9 0.7-5.16 2.11-6.78 1.41-1.62 3.34-2.43 5.79-2.43 2.44 0 4.36 0.82 5.75 2.46C597.79 32.31 598.49 34.56 598.49 37.42zM584.46 37.42c0 2.44 0.54 4.35 1.61 5.72 1.07 1.37 2.59 2.05 4.55 2.05 1.96 0 3.48-0.68 4.55-2.05 1.07-1.37 1.61-3.27 1.61-5.71 0-2.45-0.54-4.36-1.63-5.71 -1.08-1.35-2.61-2.03-4.57-2.03 -1.96 0-3.48 0.67-4.54 2.02C584.99 33.05 584.46 34.95 584.46 37.42zM605.03 46.33h-1.62V20.89h1.62V46.33zM622 41.7c0 1.59-0.6 2.82-1.82 3.67 -1.21 0.86-2.93 1.28-5.15 1.28 -2.38 0-4.26-0.36-5.66-1.09v-1.75c1.79 0.89 3.67 1.34 5.66 1.34 1.76 0 3.09-0.29 4-0.87 0.91-0.58 1.37-1.36 1.37-2.33 0-0.89-0.36-1.65-1.09-2.26 -0.72-0.61-1.91-1.21-3.57-1.8 -1.78-0.64-3.02-1.19-3.74-1.66 -0.72-0.46-1.26-0.99-1.63-1.57 -0.36-0.58-0.55-1.29-0.55-2.13 0-1.33 0.56-2.38 1.68-3.16 1.12-0.77 2.68-1.16 4.68-1.16 1.92 0 3.74 0.36 5.46 1.08l-0.6 1.47c-1.74-0.72-3.36-1.08-4.86-1.08 -1.45 0-2.6 0.24-3.45 0.72 -0.85 0.48-1.28 1.15-1.28 2 0 0.93 0.33 1.67 0.99 2.22 0.66 0.56 1.95 1.18 3.87 1.86 1.6 0.58 2.77 1.1 3.5 1.56 0.73 0.46 1.28 0.99 1.64 1.58C621.82 40.21 622 40.91 622 41.7z"/>
      </g>
    </g>

    <g id="google-analytics-text">
      <path d="M51.74 7.55h3.03l-1.15-3.05C53.52 4.26 53.4 3.93 53.27 3.5c-0.1 0.37-0.22 0.71-0.34 1.01L51.74 7.55zM54.97 8.08h-3.44l-1.18 2.99h-0.65l3.41-8.51h0.38l3.34 8.51h-0.67L54.97 8.08zM62.14 11.07V6.99c0-0.63-0.13-1.09-0.4-1.38 -0.27-0.29-0.68-0.43-1.24-0.43 -0.75 0-1.3 0.19-1.65 0.57 -0.35 0.38-0.52 1-0.52 1.85v3.48h-0.57V4.77h0.49l0.11 0.86h0.04c0.41-0.66 1.14-0.98 2.18-0.98 1.43 0 2.14 0.77 2.14 2.3v4.12H62.14zM66.13 10.67c0.67 0 1.2-0.19 1.59-0.58 0.39-0.38 0.58-0.92 0.58-1.6V7.87l-1.1 0.05c-0.88 0.04-1.51 0.18-1.89 0.41 -0.38 0.23-0.56 0.6-0.56 1.09 0 0.39 0.12 0.7 0.36 0.92C65.35 10.56 65.69 10.67 66.13 10.67M68.45 11.07l-0.15-1h-0.05c-0.32 0.41-0.64 0.69-0.98 0.86 -0.33 0.17-0.73 0.25-1.18 0.25 -0.62 0-1.1-0.16-1.44-0.47 -0.34-0.32-0.52-0.75-0.52-1.31 0-0.61 0.26-1.09 0.77-1.43 0.51-0.34 1.25-0.52 2.22-0.54l1.2-0.04V6.98c0-0.6-0.12-1.05-0.36-1.36 -0.24-0.3-0.64-0.46-1.18-0.46 -0.58 0-1.19 0.16-1.81 0.49L64.76 5.15c0.69-0.32 1.38-0.49 2.05-0.49 0.69 0 1.21 0.18 1.55 0.54 0.34 0.36 0.51 0.92 0.51 1.68v4.19H68.45z"/>
      <rect x="70.79" y="2.06" width="0.57" height="9.01"/>
      <path d="M72.3 4.77h0.59l1.33 3.53c0.41 1.09 0.66 1.82 0.77 2.2h0.04c0.16-0.5 0.43-1.24 0.79-2.23l1.33-3.5h0.59l-2.82 7.32c-0.23 0.6-0.42 1-0.57 1.21 -0.15 0.21-0.33 0.37-0.54 0.47 -0.21 0.1-0.46 0.16-0.75 0.16 -0.22 0-0.47-0.04-0.74-0.12v-0.5c0.22 0.06 0.47 0.09 0.72 0.09 0.2 0 0.37-0.05 0.52-0.14 0.15-0.09 0.29-0.24 0.41-0.43 0.12-0.19 0.26-0.5 0.42-0.93 0.16-0.42 0.26-0.7 0.31-0.83L72.3 4.77zM80.35 10.68c0.36 0 0.68-0.03 0.95-0.09v0.46c-0.28 0.09-0.6 0.14-0.96 0.14 -0.56 0-0.97-0.15-1.23-0.45 -0.26-0.3-0.4-0.76-0.4-1.4V5.27h-0.93V4.94l0.93-0.26 0.29-1.43h0.3v1.53h1.85v0.5h-1.85v3.99c0 0.48 0.09 0.84 0.26 1.07C79.72 10.56 79.98 10.68 80.35 10.68M83.11 11.07h-0.57V4.77h0.57V11.07zM82.46 3.02c0-0.37 0.12-0.56 0.37-0.56 0.12 0 0.21 0.05 0.28 0.14 0.07 0.1 0.1 0.23 0.1 0.41 0 0.17-0.03 0.31-0.1 0.41 -0.07 0.1-0.16 0.15-0.28 0.15C82.58 3.59 82.46 3.4 82.46 3.02M87.62 11.19c-0.9 0-1.6-0.28-2.12-0.85 -0.51-0.57-0.76-1.36-0.76-2.38 0-1.04 0.26-1.85 0.79-2.43 0.53-0.58 1.25-0.87 2.17-0.87 0.54 0 1.07 0.1 1.56 0.28l-0.16 0.51c-0.54-0.18-1.02-0.27-1.42-0.27 -0.77 0-1.36 0.24-1.75 0.72 -0.4 0.48-0.6 1.16-0.6 2.06 0 0.85 0.2 1.52 0.6 2 0.4 0.48 0.95 0.72 1.67 0.72 0.57 0 1.1-0.1 1.59-0.31v0.53C88.8 11.09 88.27 11.19 87.62 11.19M94.52 9.43c0 0.56-0.21 1-0.64 1.3 -0.43 0.3-1.04 0.46-1.82 0.46 -0.84 0-1.51-0.13-2-0.39v-0.62c0.63 0.32 1.3 0.48 2 0.48 0.62 0 1.09-0.1 1.42-0.31 0.32-0.21 0.48-0.48 0.48-0.83 0-0.32-0.13-0.58-0.38-0.8 -0.26-0.22-0.68-0.43-1.27-0.64 -0.63-0.23-1.07-0.42-1.33-0.59 -0.25-0.16-0.45-0.35-0.58-0.56 -0.13-0.21-0.19-0.46-0.19-0.76 0-0.47 0.2-0.84 0.59-1.12 0.4-0.27 0.95-0.41 1.66-0.41 0.68 0 1.32 0.13 1.94 0.38l-0.21 0.52c-0.62-0.25-1.19-0.38-1.72-0.38 -0.51 0-0.92 0.09-1.22 0.26 -0.3 0.17-0.45 0.41-0.45 0.71 0 0.33 0.12 0.59 0.35 0.79 0.23 0.2 0.69 0.42 1.37 0.66 0.57 0.21 0.98 0.39 1.24 0.55 0.26 0.16 0.45 0.35 0.58 0.56C94.46 8.9 94.52 9.15 94.52 9.43M33.29 8.63c0.36-0.36 0.39-0.86 0.39-1.14 0-1.12-0.67-2.87-1.96-2.87 -0.41 0-0.84 0.2-1.09 0.51 -0.26 0.33-0.34 0.75-0.34 1.16 0 1.05 0.61 2.78 1.95 2.78C32.62 9.07 33.04 8.88 33.29 8.63M32.84 11.6c-0.12-0.01-0.2-0.01-0.35-0.01 -0.14 0-0.98 0.03-1.63 0.25 -0.34 0.13-1.34 0.5-1.34 1.61 0 1.11 1.08 1.91 2.74 1.91 1.49 0 2.28-0.72 2.28-1.69C34.53 12.86 34.02 12.44 32.84 11.6M33.94 4.66c0.36 0.3 1.1 0.92 1.1 2.11 0 1.16-0.66 1.7-1.31 2.22 -0.2 0.2-0.43 0.42-0.43 0.77 0 0.34 0.23 0.53 0.4 0.67l0.56 0.44c0.68 0.58 1.31 1.11 1.31 2.19 0 1.47-1.42 2.95-4.09 2.95 -2.25 0-3.34-1.08-3.34-2.23 0-0.56 0.28-1.36 1.2-1.9 0.96-0.59 2.27-0.67 2.97-0.72 -0.22-0.28-0.47-0.58-0.47-1.06 0-0.26 0.08-0.42 0.16-0.61 -0.17 0.02-0.34 0.03-0.5 0.03 -1.65 0-2.58-1.24-2.58-2.45 0-0.72 0.33-1.51 1-2.09C30.8 4.22 31.86 4.1 32.7 4.1h3.2l-1 0.56H33.94zM26.09 10.08c0.37-0.5 0.47-1.12 0.47-1.73 0-1.37-0.65-3.99-2.58-3.99 -0.51 0-1.03 0.2-1.4 0.53 -0.6 0.54-0.72 1.23-0.72 1.9 0 1.54 0.76 4.08 2.64 4.08C25.11 10.88 25.73 10.59 26.09 10.08M24.15 11.35c-2.47 0-3.79-1.93-3.79-3.68 0-2.04 1.66-3.79 4.02-3.79 2.28 0 3.71 1.79 3.71 3.68C28.09 9.4 26.68 11.35 24.15 11.35M17.67 10.08c0.38-0.5 0.47-1.12 0.47-1.73 0-1.37-0.65-3.99-2.58-3.99 -0.51 0-1.02 0.2-1.4 0.53 -0.61 0.54-0.71 1.23-0.71 1.9 0 1.54 0.76 4.08 2.64 4.08C16.69 10.88 17.32 10.59 17.67 10.08M15.73 11.35c-2.47 0-3.79-1.93-3.79-3.68 0-2.04 1.66-3.79 4.02-3.79 2.28 0 3.71 1.79 3.71 3.68C19.68 9.4 18.26 11.35 15.73 11.35M10.75 11.1l-2.23 0.52c-0.91 0.14-1.72 0.27-2.57 0.27C1.64 11.89 0 8.7 0 6.21 0 3.17 2.33 0.35 6.3 0.35c0.84 0 1.66 0.13 2.39 0.33 1.17 0.33 1.72 0.74 2.06 0.97L9.46 2.89 8.91 3.01l0.39-0.63c-0.53-0.52-1.5-1.47-3.34-1.47 -2.47 0-4.32 1.88-4.32 4.62 0 2.95 2.12 5.72 5.53 5.72 1 0 1.52-0.21 1.98-0.39V8.34L6.79 8.47l1.25-0.67h3.31l-0.4 0.39c-0.11 0.09-0.13 0.12-0.16 0.25 -0.02 0.14-0.03 0.6-0.03 0.76V11.1zM38.88 10.65c-0.52-0.05-0.62-0.14-0.62-0.75V9.73 1.03c0-0.04 0.01-0.07 0.01-0.1 0.06-0.55 0.22-0.64 0.7-0.93H36.73l-1.17 0.56h1.2v0.01L36.75 0.57v9.15 0.52c0 0.31-0.06 0.36-0.42 0.83h2.76l0.58-0.34C39.41 10.7 39.14 10.68 38.88 10.65M43.77 6.16c0.3-0.11 0.45-0.2 0.45-0.42 0-0.63-0.7-1.34-1.53-1.34 -0.62 0-1.78 0.49-1.78 2.17 0 0.27 0.03 0.54 0.05 0.82L43.77 6.16zM45.23 10.8c-0.17 0.09-0.34 0.21-0.51 0.28 -0.51 0.24-1.04 0.3-1.5 0.3 -0.5 0-1.27-0.03-2.06-0.61 -1.09-0.77-1.58-2.12-1.58-3.28 0-2.41 1.96-3.59 3.55-3.59 0.56 0 1.14 0.14 1.6 0.44 0.78 0.51 0.98 1.18 1.09 1.54l-3.64 1.48 -1.2 0.09c0.39 1.98 1.72 3.13 3.2 3.13 0.79 0 1.36-0.28 1.89-0.54L45.23 10.8z"/>
    </g>

  </defs>
</svg>
