<svg>
  <g id="ga-developer-logo-mark">
    <circle fill="#F7991C" cx="13" cy="13" r="13"/>
    <path fill="#F05721" d="M26 13c0-0.2 0-0.5 0-0.7l-5-5L7.6 20.6 13 26C20.1 26 26 20.1 26 13z"/>
    <path fill="#FFFFFF" d="M17.5 18.9c0.3-0.2 0.6-0.5 1-0.8 0.3-0.3 0.6-0.6 0.8-1l2.1 0.4 0.6-0.4 0.8-3.2 -0.4-0.7 -2-0.8c-0.1-0.9-0.3-1.7-0.7-2.5L21 8.1V7.3l-2.4-2.4h-0.8l-1.7 1.3c-0.8-0.4-1.6-0.7-2.5-0.7l-0.8-2L12 3 8.8 3.8 8.4 4.5l0.3 2C8.4 6.7 8 7 7.7 7.3S7.2 8 6.9 8.3L4.8 8 4.1 8.4l-0.8 3.2 0.4 0.7 2 0.8c0.1 0.9 0.3 1.7 0.7 2.5l-1.3 1.6v0.8l2.4 2.4h0.8l1.6-1.3c0.8 0.4 1.6 0.6 2.5 0.7l0.8 2 0.7 0.4 3.2-0.8 0.4-0.6L17.5 18.9z"/>
    <path fill="#F05721" d="M16 12.7c0 1.6-1.3 2.9-2.9 2.9s-2.9-1.3-2.9-2.9 1.3-2.9 2.9-2.9S16 11.1 16 12.7z"/>
    <path fill="#F7991C" d="M11.1 14.8c-0.6-0.5-0.9-1.2-0.9-2 0-1.6 1.3-2.9 2.9-2.9 0.8 0 1.5 0.3 2 0.9l1.2-1.2c-0.9-0.9-2-1.4-3.3-1.4 -2.5 0-4.6 2-4.6 4.6 0 1.3 0.6 2.4 1.4 3.3L11.1 14.8z"/>
  </g>
  <g id="ga-developer-logo-text">
    <path d="M102.4 20.8l5-13.2h1.9l5 13.2h-1.9l-1.3-3.6h-5.5l-1.3 3.6H102.4zM106.1 15.6h4.4l-2.2-5.9h-0.1L106.1 15.6z"/>
    <path d="M116.8 11.7V13h0.1c0.2-0.4 0.7-0.8 1.1-1.1 0.6-0.3 1.1-0.5 1.7-0.5 1.1 0 1.9 0.3 2.6 1.1 0.6 0.6 0.9 1.6 0.9 2.8v5.5h-1.7v-5.3c0-1.7-0.7-2.5-2.2-2.5 -0.7 0-1.3 0.2-1.7 0.8s-0.7 1.2-0.7 1.9v5h-1.7v-9H116.8z"/>
    <path d="M127.6 21c-1 0-1.8-0.2-2.4-0.8 -0.7-0.6-1-1.3-1-2.2 0-1 0.4-1.8 1.1-2.3 0.7-0.6 1.7-0.8 2.8-0.8 1 0 1.8 0.2 2.4 0.6v-0.2c0-0.6-0.2-1.2-0.7-1.6 -0.5-0.4-1-0.6-1.7-0.6 -0.5 0-1 0.1-1.3 0.3 -0.4 0.2-0.7 0.6-0.8 1l-1.5-0.6c0.2-0.6 0.7-1.1 1.2-1.5 0.7-0.5 1.5-0.7 2.4-0.7 1.1 0 2.1 0.3 2.8 1 0.7 0.7 1.1 1.6 1.1 2.8v5.4h-1.6v-1.2h-0.1C129.9 20.6 128.9 21 127.6 21zM127.9 19.5c0.7 0 1.3-0.2 1.9-0.8 0.6-0.5 0.9-1.1 0.9-1.9 -0.5-0.4-1.2-0.6-2.2-0.6 -0.8 0-1.5 0.2-1.9 0.6 -0.4 0.3-0.7 0.8-0.7 1.2s0.2 0.8 0.6 1.1C127 19.4 127.4 19.5 127.9 19.5z"/>
    <path d="M135.6 20.8h-1.7V7.6h1.7V20.8z"/>
    <path d="M139.8 24.8H138l2.1-4.6 -3.7-8.4h1.9l2.7 6.5 0 0 2.6-6.5h1.9L139.8 24.8z"/>
    <path d="M150.5 20.9c-1 0-1.7-0.2-2.2-0.7 -0.5-0.5-0.7-1.2-0.7-2.1v-4.7h-1.6v-1.5h1.6V8.9h1.7v2.8h2.2v1.5h-2.2v4.6c0 1 0.4 1.5 1.2 1.5 0.3 0 0.6-0.1 0.8-0.2l0.6 1.5C151.4 20.8 151 20.9 150.5 20.9z"/>
    <path d="M154.5 9.4c-0.2 0.2-0.5 0.3-0.8 0.3s-0.6-0.1-0.8-0.3c-0.2-0.2-0.3-0.5-0.3-0.8s0.1-0.7 0.3-0.8c0.2-0.2 0.5-0.3 0.8-0.3s0.7 0.1 0.8 0.3c0.2 0.2 0.3 0.5 0.3 0.8S154.7 9.3 154.5 9.4zM154.5 20.8h-1.7v-9.1h1.7V20.8z"/>
    <path d="M160.3 21c-1.4 0-2.4-0.5-3.3-1.4 -0.9-0.9-1.3-2-1.3-3.4 0-1.4 0.4-2.5 1.3-3.4 0.9-0.9 1.9-1.4 3.3-1.4 1 0 1.9 0.2 2.5 0.7 0.6 0.5 1.1 1.1 1.5 1.9l-1.5 0.6c-0.5-1.1-1.3-1.7-2.5-1.7 -0.7 0-1.4 0.3-1.9 0.9 -0.6 0.6-0.9 1.4-0.9 2.4 0 1 0.3 1.7 0.9 2.4s1.2 0.9 1.9 0.9c1.3 0 2.1-0.6 2.6-1.7l1.5 0.6c-0.3 0.7-0.8 1.4-1.5 1.9C162.2 20.8 161.4 21 160.3 21z"/>
    <path d="M169 21c-1 0-1.9-0.2-2.5-0.7 -0.7-0.5-1.1-1.1-1.5-1.9l1.5-0.6c0.5 1.1 1.3 1.7 2.4 1.7 0.6 0 1-0.1 1.3-0.3 0.3-0.2 0.5-0.6 0.5-0.9 0-0.6-0.4-1-1.2-1.2l-1.8-0.4c-0.6-0.2-1.1-0.4-1.6-0.8 -0.5-0.4-0.8-1-0.8-1.7 0-0.8 0.3-1.5 1.1-1.9 0.7-0.5 1.5-0.7 2.5-0.7 0.8 0 1.5 0.2 2.1 0.6 0.6 0.3 1.1 0.9 1.4 1.5l-1.5 0.6c-0.3-0.8-1.1-1.2-2-1.2 -0.5 0-0.9 0.1-1.3 0.3 -0.3 0.2-0.5 0.5-0.5 0.8 0 0.5 0.4 0.9 1.2 1.1l1.8 0.4c0.8 0.2 1.5 0.6 1.9 1 0.4 0.5 0.6 1.1 0.6 1.6 0 0.8-0.3 1.5-1 2C170.9 20.8 170.1 21 169 21z"/>
    <rect opacity=".5" x="180.6" y="6.4" width="1.5" height="16.6"/>
    <path d="M37.9 13.5c0-4.1 3.5-7.6 7.6-7.6 2.3 0 4 0.9 5.2 2.1l-1.5 1.5C48.3 8.7 47.1 8 45.5 8c-3 0-5.4 2.4-5.4 5.5 0 3 2.4 5.5 5.4 5.5 2 0 3.1-0.8 3.8-1.5 0.6-0.6 1-1.5 1.1-2.6h-5v-2h7c0.1 0.4 0.1 0.8 0.1 1.3 0 1.5-0.4 3.5-1.8 4.8 -1.3 1.4-3 2.1-5.3 2.1C41.4 21 37.9 17.7 37.9 13.5z"/>
    <path d="M58.2 11.3c-2.7 0-4.9 2-4.9 4.9s2.2 4.9 4.9 4.9 4.9-2 4.9-4.9C63 13.4 60.9 11.3 58.2 11.3zM58.2 19.2c-1.5 0-2.8-1.2-2.8-2.9 0-1.8 1.3-2.9 2.8-2.9s2.8 1.2 2.8 2.9S59.6 19.2 58.2 19.2z"/>
    <path d="M68.8 11.3c-2.7 0-4.9 2-4.9 4.9s2.2 4.9 4.9 4.9 4.9-2 4.9-4.9C73.8 13.4 71.6 11.3 68.8 11.3zM68.8 19.2c-1.5 0-2.8-1.2-2.8-2.9 0-1.8 1.3-2.9 2.8-2.9s2.8 1.2 2.8 2.9S70.4 19.2 68.8 19.2z"/>
    <path d="M82 11.6v0.8h-0.1c-0.5-0.6-1.4-1.1-2.6-1.1 -2.4 0-4.6 2.1-4.6 4.9s2.2 4.9 4.6 4.9c1.1 0 2.1-0.5 2.6-1.1H82v0.7c0 1.9-1 2.8-2.6 2.8 -1.3 0-2.1-1-2.4-1.7l-1.9 0.8c0.6 1.3 1.9 2.8 4.3 2.8 2.5 0 4.6-1.5 4.6-5v-8.9H82zM79.5 19.2c-1.5 0-2.7-1.2-2.7-2.9s1.2-3 2.7-3 2.6 1.2 2.6 3C82.1 17.9 80.9 19.2 79.5 19.2z"/>
    <rect x="85.5" y="6.4" width="2.1" height="14.3"/>
    <path d="M93.4 19.2c-1.1 0-1.9-0.5-2.4-1.5l6.5-2.7 -0.2-0.6c-0.4-1.1-1.6-3.1-4.1-3.1 -2.5 0-4.6 1.9-4.6 4.9 0 2.8 2 4.9 4.8 4.9 2.2 0 3.5-1.4 4.1-2.2l-1.6-1.1C95.3 18.6 94.6 19.2 93.4 19.2zM93.3 13.2c0.8 0 1.5 0.4 1.8 1.1l-4.4 1.8C90.7 14.1 92.2 13.2 93.3 13.2z"/>
    <path d="M190.6 20.8V7.6h4.1c2 0 3.7 0.7 4.9 1.9s1.8 2.8 1.8 4.8 -0.6 3.6-1.8 4.8 -2.8 1.9-4.9 1.9L190.6 20.8 190.6 20.8zM192.3 19.2h2.4c1.5 0 2.8-0.4 3.7-1.3s1.3-2.1 1.3-3.7 -0.4-2.8-1.3-3.7 -2.1-1.3-3.7-1.3h-2.4V19.2z"/>
    <path d="M206.9 21c-1.4 0-2.4-0.5-3.3-1.4 -0.9-0.9-1.3-2-1.3-3.4 0-1.3 0.4-2.4 1.2-3.4s1.9-1.4 3.2-1.4c1.3 0 2.4 0.4 3.2 1.3s1.2 2 1.2 3.5v0.3H204c0.1 0.9 0.3 1.6 0.9 2.2 0.6 0.6 1.2 0.8 1.9 0.8 1.2 0 2-0.5 2.4-1.5l1.5 0.6c-0.3 0.7-0.8 1.3-1.5 1.8C208.7 20.8 207.9 21 206.9 21zM209.3 15.2c0-0.5-0.2-1-0.7-1.5 -0.4-0.5-1.1-0.7-1.9-0.7 -0.6 0-1.1 0.2-1.6 0.6s-0.8 0.9-1 1.6C204 15.2 209.3 15.2 209.3 15.2z"/>
    <path d="M212.3 20.8v-9.1h1.6V13h0.1c0.2-0.4 0.6-0.8 1.2-1.1s1.1-0.5 1.6-0.5c1.4 0 2.4 0.6 2.8 1.7 0.7-1.1 1.8-1.7 3.2-1.7 1.1 0 1.9 0.3 2.4 1.1 0.6 0.6 0.8 1.6 0.8 2.8v5.5h-1.7v-5.3c0-0.9-0.2-1.5-0.5-1.9 -0.3-0.4-0.8-0.6-1.5-0.6 -0.6 0-1.2 0.2-1.6 0.8 -0.4 0.6-0.6 1.2-0.6 1.9v5h-1.7v-5.3c0-0.9-0.2-1.5-0.5-1.9s-0.8-0.6-1.5-0.6c-0.6 0-1.2 0.2-1.6 0.8 -0.4 0.6-0.6 1.2-0.6 1.9v5L212.3 20.8 212.3 20.8z"/>
    <path d="M228.5 12.8c0.9-0.9 1.9-1.4 3.3-1.4 1.4 0 2.4 0.5 3.3 1.4 0.9 0.9 1.3 2 1.3 3.4s-0.4 2.5-1.3 3.4c-0.9 0.9-1.9 1.4-3.3 1.4 -1.4 0-2.4-0.5-3.3-1.4 -0.9-0.9-1.3-2-1.3-3.4S227.7 13.7 228.5 12.8zM229.8 18.6c0.6 0.6 1.3 0.9 2.1 0.9s1.5-0.3 2.1-0.9c0.6-0.6 0.9-1.4 0.9-2.4 0-1-0.3-1.8-0.9-2.4 -0.6-0.6-1.3-0.9-2.1-0.9s-1.5 0.3-2.1 0.9c-0.6 0.6-0.9 1.4-0.9 2.4C228.9 17.2 229.2 18 229.8 18.6z"/>
    <path d="M241 21c-1 0-1.9-0.2-2.5-0.7 -0.6-0.5-1.1-1.1-1.5-1.9l1.5-0.6c0.5 1.1 1.3 1.7 2.4 1.7 0.6 0 1-0.1 1.3-0.3s0.5-0.6 0.5-0.9c0-0.6-0.4-1-1.2-1.2l-1.8-0.4c-0.6-0.2-1.1-0.4-1.6-0.8s-0.8-1-0.8-1.7c0-0.8 0.3-1.5 1.1-1.9 0.7-0.5 1.5-0.7 2.5-0.7 0.8 0 1.5 0.2 2.1 0.6 0.6 0.3 1.1 0.9 1.4 1.5l-1.5 0.6c-0.3-0.8-1.1-1.2-2-1.2 -0.5 0-0.9 0.1-1.3 0.3 -0.3 0.2-0.5 0.5-0.5 0.8 0 0.5 0.4 0.9 1.2 1.1l1.8 0.4c0.8 0.2 1.5 0.6 1.9 1 0.4 0.5 0.6 1.1 0.6 1.6 0 0.8-0.3 1.5-1 2C242.9 20.8 242 21 241 21z"/>
    <path d="M260 16.1l-1.5 2.4 1.2 1.6 -1.3 1 -0.9-1.2c-0.9 0.8-1.9 1.2-3.1 1.2 -1.4 0-2.5-0.5-3.4-1.4 -1-0.9-1.4-2-1.4-3.3 0-0.7 0.2-1.5 0.6-2.2 0.4-0.7 1-1.3 1.7-1.7 -0.6-0.8-1-1.5-1-2.2 0-0.8 0.3-1.5 1-2.2 0.6-0.6 1.4-0.9 2.3-0.9 0.7 0 1.4 0.2 1.9 0.7s0.9 1 1.1 1.6l-1.5 0.8c-0.3-0.9-0.8-1.4-1.5-1.4 -0.4 0-0.7 0.2-1.1 0.4 -0.2 0.2-0.4 0.6-0.4 1.1 0 0.4 0.2 0.8 0.4 1.2l4.4 5.7 1.2-1.9L260 16.1zM254.5 19.5c0.9 0 1.5-0.3 2.1-0.9l-3.7-4.9c-0.5 0.2-0.9 0.6-1.2 1.1s-0.5 1-0.5 1.5c0 0.9 0.3 1.6 1 2.2C252.9 19.3 253.6 19.5 254.5 19.5z"/>
    <path d="M269.3 20.8h-1.7V9.2H264V7.6h9v1.6h-3.7V20.8z"/>
    <path d="M273.3 12.8c0.9-0.9 2-1.4 3.3-1.4s2.4 0.5 3.3 1.4c0.9 0.9 1.3 2 1.3 3.4s-0.4 2.5-1.3 3.4c-0.9 0.9-2 1.4-3.3 1.4s-2.4-0.5-3.3-1.4c-0.9-0.9-1.3-2-1.3-3.4S272.4 13.7 273.3 12.8zM274.6 18.6c0.6 0.6 1.3 0.9 2.1 0.9s1.5-0.3 2.1-0.9c0.6-0.6 0.9-1.4 0.9-2.4 0-1-0.3-1.8-0.9-2.4 -0.6-0.6-1.3-0.9-2.1-0.9s-1.5 0.3-2.1 0.9c-0.6 0.6-0.9 1.4-0.9 2.4S274 18 274.6 18.6z"/>
    <path d="M283.4 12.8c0.9-0.9 1.9-1.4 3.3-1.4 1.4 0 2.4 0.5 3.3 1.4 0.9 0.9 1.3 2 1.3 3.4s-0.4 2.5-1.3 3.4c-0.9 0.9-1.9 1.4-3.3 1.4 -1.4 0-2.4-0.5-3.3-1.4 -0.9-0.9-1.3-2-1.3-3.4C282 14.9 282.5 13.7 283.4 12.8zM284.6 18.6c0.6 0.6 1.3 0.9 2.1 0.9s1.5-0.3 2.1-0.9c0.6-0.6 0.9-1.4 0.9-2.4 0-1-0.3-1.8-0.9-2.4 -0.6-0.6-1.3-0.9-2.1-0.9s-1.5 0.3-2.1 0.9c-0.6 0.6-0.9 1.4-0.9 2.4C283.7 17.2 284.1 18 284.6 18.6z"/>
    <path d="M294.3 20.8h-1.7V7.6h1.7V20.8z"/>
    <path d="M299.3 21c-1 0-1.9-0.2-2.5-0.7 -0.6-0.5-1.1-1.1-1.5-1.9l1.5-0.6c0.5 1.1 1.3 1.7 2.4 1.7 0.6 0 1-0.1 1.3-0.3s0.5-0.6 0.5-0.9c0-0.6-0.4-1-1.2-1.2l-1.8-0.4c-0.6-0.2-1.1-0.4-1.6-0.8 -0.5-0.4-0.8-1-0.8-1.7 0-0.8 0.3-1.5 1.1-1.9 0.7-0.5 1.5-0.7 2.5-0.7 0.8 0 1.5 0.2 2.1 0.6 0.6 0.3 1.1 0.9 1.4 1.5l-1.5 0.6c-0.3-0.8-1.1-1.2-2-1.2 -0.5 0-0.9 0.1-1.3 0.3 -0.3 0.2-0.5 0.5-0.5 0.8 0 0.5 0.4 0.9 1.2 1.1l1.8 0.4c0.8 0.2 1.5 0.6 1.9 1 0.4 0.5 0.6 1.1 0.6 1.6 0 0.8-0.3 1.5-1 2C301.2 20.8 300.4 21 299.3 21z"/>
  </g>

</svg>
