<svg xmlns="http://www.w3.org/2000/svg" xmlns:xlink="http://www.w3.org/1999/xlink" version="1.1">
  <defs>

    <g id="icon-add-circle">
      <path d="M17.016 12.984v-1.969h-4.031v-4.031h-1.969v4.031h-4.031v1.969h4.031v4.031h1.969v-4.031h4.031zM12 2.016q4.125 0 7.055 2.93t2.93 7.055-2.93 7.055-7.055 2.93-7.055-2.93-2.93-7.055 2.93-7.055 7.055-2.93z"></path>
    </g>

    <g id="icon-arrow-back">
      <path d="M20.016 11.016v1.969h-12.188l5.578 5.625-1.406 1.406-8.016-8.016 8.016-8.016 1.406 1.406-5.578 5.625h12.188z"></path>
    </g>

    <g id="icon-arrow-forward">
      <path d="M12 3.984l8.016 8.016-8.016 8.016-1.406-1.406 5.578-5.625h-12.188v-1.969h12.188l-5.578-5.625z"></path>
    </g>

    <g id="icon-call-made">
      <path d="M9 5.016h9.984v9.984h-1.969v-6.609l-11.625 11.625-1.406-1.406 11.625-11.625h-6.609v-1.969z"></path>
    </g>

    <g id="icon-check">
      <path d="M9 16.172l10.594-10.594 1.406 1.406-12 12-5.578-5.578 1.406-1.406z"></path>
    </g>

    <g id="icon-content-paste">
      <path d="M19 2h-4.18C14.4.84 13.3 0 12 0c-1.3 0-2.4.84-2.82 2H5c-1.1 0-2 .9-2 2v16c0 1.1.9 2 2 2h14c1.1 0 2-.9 2-2V4c0-1.1-.9-2-2-2zm-7 0c.55 0 1 .45 1 1s-.45 1-1 1-1-.45-1-1 .45-1 1-1zm7 18H5V4h2v3h10V4h2v16z"/>
    </g>

    <g id="icon-close">
      <path d="M19 6.41L17.59 5 12 10.59 6.41 5 5 6.41 10.59 12 5 17.59 6.41 19 12 13.41 17.59 19 19 17.59 13.41 12z"/>
    </g>

    <g id="icon-error-outline">
      <path d="M12 20.016q3.281 0 5.648-2.367t2.367-5.648-2.367-5.648-5.648-2.367-5.648 2.367-2.367 5.648 2.367 5.648 5.648 2.367zM12 2.016q4.125 0 7.055 2.93t2.93 7.055-2.93 7.055-7.055 2.93-7.055-2.93-2.93-7.055 2.93-7.055 7.055-2.93zM11.016 6.984h1.969v6h-1.969v-6zM11.016 15h1.969v2.016h-1.969v-2.016z"></path>
    </g>

    <g id="icon-event">
      <path d="M18.984 18.984v-10.969h-13.969v10.969h13.969zM15.984 0.984h2.016v2.016h0.984q0.797 0 1.406 0.609t0.609 1.406v13.969q0 0.797-0.609 1.406t-1.406 0.609h-13.969q-0.844 0-1.43-0.609t-0.586-1.406v-13.969q0-0.797 0.586-1.406t1.43-0.609h0.984v-2.016h2.016v2.016h7.969v-2.016zM17.016 12v5.016h-5.016v-5.016h5.016z"></path>
    </g>

    <g id="icon-file-download">
      <path d="M5.016 18h13.969v2.016h-13.969v-2.016zM18.984 9l-6.984 6.984-6.984-6.984h3.984v-6h6v6h3.984z"></path>
    </g>

    <g id="icon-home">
      <path d="M9.984 20.016h-4.969v-8.016h-3l9.984-9 9.984 9h-3v8.016h-4.969v-6h-4.031v6z"></path>
    </g>

    <g id="icon-info-outline">
      <path d="M11.016 9v-2.016h1.969v2.016h-1.969zM12 20.016q3.281 0 5.648-2.367t2.367-5.648-2.367-5.648-5.648-2.367-5.648 2.367-2.367 5.648 2.367 5.648 5.648 2.367zM12 2.016q4.125 0 7.055 2.93t2.93 7.055-2.93 7.055-7.055 2.93-7.055-2.93-2.93-7.055 2.93-7.055 7.055-2.93zM11.016 17.016v-6h1.969v6h-1.969z"></path>
    </g>

    <g id="icon-link">
      <path d="M3.9 12c0-1.71 1.39-3.1 3.1-3.1h4V7H7c-2.76 0-5 2.24-5 5s2.24 5 5 5h4v-1.9H7c-1.71 0-3.1-1.39-3.1-3.1zM8 13h8v-2H8v2zm9-6h-4v1.9h4c1.71 0 3.1 1.39 3.1 3.1s-1.39 3.1-3.1 3.1h-4V17h4c2.76 0 5-2.24 5-5s-2.24-5-5-5z"/>
    </g>

    <g id="icon-menu">
      <path d="M3 6h18v2.016h-18v-2.016zM3 12.984v-1.969h18v1.969h-18zM3 18v-2.016h18v2.016h-18z"></path>
    </g>

    <g id="icon-person">
      <path d="M12 14.016q2.531 0 5.273 1.102t2.742 2.883v2.016h-16.031v-2.016q0-1.781 2.742-2.883t5.273-1.102zM12 12q-1.641 0-2.813-1.172t-1.172-2.813 1.172-2.836 2.813-1.195 2.813 1.195 1.172 2.836-1.172 2.813-2.813 1.172z"></path>
    </g>

    <g id="icon-remove-circle">
      <path d="M17.016 12.984v-1.969h-10.031v1.969h10.031zM12 2.016q4.125 0 7.055 2.93t2.93 7.055-2.93 7.055-7.055 2.93-7.055-2.93-2.93-7.055 2.93-7.055 7.055-2.93z"></path>
    </g>

    <g id="icon-refresh">
      <path d="M17.65 6.35C16.2 4.9 14.21 4 12 4c-4.42 0-7.99 3.58-7.99 8s3.57 8 7.99 8c3.73 0 6.84-2.55 7.73-6h-2.08c-.82 2.33-3.04 4-5.65 4-3.31 0-6-2.69-6-6s2.69-6 6-6c1.66 0 3.14.69 4.22 1.78L13 11h7V4l-2.35 2.35z"/>
    </g>

    <g id="icon-send">
      <path d="M2.01 21L23 12 2.01 3 2 10l15 2-15 2z"/>
    </g>

    <g id="icon-warning">
      <path d="M1 21h22L12 2 1 21zm12-3h-2v-2h2v2zm0-4h-2v-4h2v4z"/>
    </g>

    <g id="ga-mark-solid">
      <path d="M16 26.67l-7.11-7.11L0 28.45v0.89c0 0.1 0.01 0.2 0.02 0.3C0.17 30.97 1.3 32 2.67 32h26.67c1.37 0 2.5-1.03 2.65-2.37 0.01-0.1 0.02-0.2 0.02-0.3V10.67L16 26.67zM29.33 0L29.33 0h0H2.67 2.67h0C1.19 0 0 1.19 0 2.67v18.67l8.89-8.89L16 19.56 32 3.56V2.67C32 1.19 30.81 0 29.33 0"/>
    </g>

    <g id="ga-developer-logo">
      <g id="ga-developer-logo-mark">
        <circle fill="#F7991C" cx="13" cy="13" r="13"/>
        <path fill="#F05721" d="M26 13c0-0.2 0-0.5 0-0.7l-5-5L7.6 20.6 13 26C20.1 26 26 20.1 26 13z"/>
        <path fill="#FFFFFF" d="M17.5 18.9c0.3-0.2 0.6-0.5 1-0.8 0.3-0.3 0.6-0.6 0.8-1l2.1 0.4 0.6-0.4 0.8-3.2 -0.4-0.7 -2-0.8c-0.1-0.9-0.3-1.7-0.7-2.5L21 8.1V7.3l-2.4-2.4h-0.8l-1.7 1.3c-0.8-0.4-1.6-0.7-2.5-0.7l-0.8-2L12 3 8.8 3.8 8.4 4.5l0.3 2C8.4 6.7 8 7 7.7 7.3S7.2 8 6.9 8.3L4.8 8 4.1 8.4l-0.8 3.2 0.4 0.7 2 0.8c0.1 0.9 0.3 1.7 0.7 2.5l-1.3 1.6v0.8l2.4 2.4h0.8l1.6-1.3c0.8 0.4 1.6 0.6 2.5 0.7l0.8 2 0.7 0.4 3.2-0.8 0.4-0.6L17.5 18.9z"/>
        <path fill="#F05721" d="M16 12.7c0 1.6-1.3 2.9-2.9 2.9s-2.9-1.3-2.9-2.9 1.3-2.9 2.9-2.9S16 11.1 16 12.7z"/>
        <path fill="#F7991C" d="M11.1 14.8c-0.6-0.5-0.9-1.2-0.9-2 0-1.6 1.3-2.9 2.9-2.9 0.8 0 1.5 0.3 2 0.9l1.2-1.2c-0.9-0.9-2-1.4-3.3-1.4 -2.5 0-4.6 2-4.6 4.6 0 1.3 0.6 2.4 1.4 3.3L11.1 14.8z"/>
      </g>
      <g id="ga-developer-logo-text">
        <path d="M102.4 20.8l5-13.2h1.9l5 13.2h-1.9l-1.3-3.6h-5.5l-1.3 3.6H102.4zM106.1 15.6h4.4l-2.2-5.9h-0.1L106.1 15.6z"/>
        <path d="M116.8 11.7V13h0.1c0.2-0.4 0.7-0.8 1.1-1.1 0.6-0.3 1.1-0.5 1.7-0.5 1.1 0 1.9 0.3 2.6 1.1 0.6 0.6 0.9 1.6 0.9 2.8v5.5h-1.7v-5.3c0-1.7-0.7-2.5-2.2-2.5 -0.7 0-1.3 0.2-1.7 0.8s-0.7 1.2-0.7 1.9v5h-1.7v-9H116.8z"/>
        <path d="M127.6 21c-1 0-1.8-0.2-2.4-0.8 -0.7-0.6-1-1.3-1-2.2 0-1 0.4-1.8 1.1-2.3 0.7-0.6 1.7-0.8 2.8-0.8 1 0 1.8 0.2 2.4 0.6v-0.2c0-0.6-0.2-1.2-0.7-1.6 -0.5-0.4-1-0.6-1.7-0.6 -0.5 0-1 0.1-1.3 0.3 -0.4 0.2-0.7 0.6-0.8 1l-1.5-0.6c0.2-0.6 0.7-1.1 1.2-1.5 0.7-0.5 1.5-0.7 2.4-0.7 1.1 0 2.1 0.3 2.8 1 0.7 0.7 1.1 1.6 1.1 2.8v5.4h-1.6v-1.2h-0.1C129.9 20.6 128.9 21 127.6 21zM127.9 19.5c0.7 0 1.3-0.2 1.9-0.8 0.6-0.5 0.9-1.1 0.9-1.9 -0.5-0.4-1.2-0.6-2.2-0.6 -0.8 0-1.5 0.2-1.9 0.6 -0.4 0.3-0.7 0.8-0.7 1.2s0.2 0.8 0.6 1.1C127 19.4 127.4 19.5 127.9 19.5z"/>
        <path d="M135.6 20.8h-1.7V7.6h1.7V20.8z"/>
        <path d="M139.8 24.8H138l2.1-4.6 -3.7-8.4h1.9l2.7 6.5 0 0 2.6-6.5h1.9L139.8 24.8z"/>
        <path d="M150.5 20.9c-1 0-1.7-0.2-2.2-0.7 -0.5-0.5-0.7-1.2-0.7-2.1v-4.7h-1.6v-1.5h1.6V8.9h1.7v2.8h2.2v1.5h-2.2v4.6c0 1 0.4 1.5 1.2 1.5 0.3 0 0.6-0.1 0.8-0.2l0.6 1.5C151.4 20.8 151 20.9 150.5 20.9z"/>
        <path d="M154.5 9.4c-0.2 0.2-0.5 0.3-0.8 0.3s-0.6-0.1-0.8-0.3c-0.2-0.2-0.3-0.5-0.3-0.8s0.1-0.7 0.3-0.8c0.2-0.2 0.5-0.3 0.8-0.3s0.7 0.1 0.8 0.3c0.2 0.2 0.3 0.5 0.3 0.8S154.7 9.3 154.5 9.4zM154.5 20.8h-1.7v-9.1h1.7V20.8z"/>
        <path d="M160.3 21c-1.4 0-2.4-0.5-3.3-1.4 -0.9-0.9-1.3-2-1.3-3.4 0-1.4 0.4-2.5 1.3-3.4 0.9-0.9 1.9-1.4 3.3-1.4 1 0 1.9 0.2 2.5 0.7 0.6 0.5 1.1 1.1 1.5 1.9l-1.5 0.6c-0.5-1.1-1.3-1.7-2.5-1.7 -0.7 0-1.4 0.3-1.9 0.9 -0.6 0.6-0.9 1.4-0.9 2.4 0 1 0.3 1.7 0.9 2.4s1.2 0.9 1.9 0.9c1.3 0 2.1-0.6 2.6-1.7l1.5 0.6c-0.3 0.7-0.8 1.4-1.5 1.9C162.2 20.8 161.4 21 160.3 21z"/>
        <path d="M169 21c-1 0-1.9-0.2-2.5-0.7 -0.7-0.5-1.1-1.1-1.5-1.9l1.5-0.6c0.5 1.1 1.3 1.7 2.4 1.7 0.6 0 1-0.1 1.3-0.3 0.3-0.2 0.5-0.6 0.5-0.9 0-0.6-0.4-1-1.2-1.2l-1.8-0.4c-0.6-0.2-1.1-0.4-1.6-0.8 -0.5-0.4-0.8-1-0.8-1.7 0-0.8 0.3-1.5 1.1-1.9 0.7-0.5 1.5-0.7 2.5-0.7 0.8 0 1.5 0.2 2.1 0.6 0.6 0.3 1.1 0.9 1.4 1.5l-1.5 0.6c-0.3-0.8-1.1-1.2-2-1.2 -0.5 0-0.9 0.1-1.3 0.3 -0.3 0.2-0.5 0.5-0.5 0.8 0 0.5 0.4 0.9 1.2 1.1l1.8 0.4c0.8 0.2 1.5 0.6 1.9 1 0.4 0.5 0.6 1.1 0.6 1.6 0 0.8-0.3 1.5-1 2C170.9 20.8 170.1 21 169 21z"/>
        <rect opacity=".5" x="180.6" y="6.4" width="1.5" height="16.6"/>
        <path d="M37.9 13.5c0-4.1 3.5-7.6 7.6-7.6 2.3 0 4 0.9 5.2 2.1l-1.5 1.5C48.3 8.7 47.1 8 45.5 8c-3 0-5.4 2.4-5.4 5.5 0 3 2.4 5.5 5.4 5.5 2 0 3.1-0.8 3.8-1.5 0.6-0.6 1-1.5 1.1-2.6h-5v-2h7c0.1 0.4 0.1 0.8 0.1 1.3 0 1.5-0.4 3.5-1.8 4.8 -1.3 1.4-3 2.1-5.3 2.1C41.4 21 37.9 17.7 37.9 13.5z"/>
        <path d="M58.2 11.3c-2.7 0-4.9 2-4.9 4.9s2.2 4.9 4.9 4.9 4.9-2 4.9-4.9C63 13.4 60.9 11.3 58.2 11.3zM58.2 19.2c-1.5 0-2.8-1.2-2.8-2.9 0-1.8 1.3-2.9 2.8-2.9s2.8 1.2 2.8 2.9S59.6 19.2 58.2 19.2z"/>
        <path d="M68.8 11.3c-2.7 0-4.9 2-4.9 4.9s2.2 4.9 4.9 4.9 4.9-2 4.9-4.9C73.8 13.4 71.6 11.3 68.8 11.3zM68.8 19.2c-1.5 0-2.8-1.2-2.8-2.9 0-1.8 1.3-2.9 2.8-2.9s2.8 1.2 2.8 2.9S70.4 19.2 68.8 19.2z"/>
        <path d="M82 11.6v0.8h-0.1c-0.5-0.6-1.4-1.1-2.6-1.1 -2.4 0-4.6 2.1-4.6 4.9s2.2 4.9 4.6 4.9c1.1 0 2.1-0.5 2.6-1.1H82v0.7c0 1.9-1 2.8-2.6 2.8 -1.3 0-2.1-1-2.4-1.7l-1.9 0.8c0.6 1.3 1.9 2.8 4.3 2.8 2.5 0 4.6-1.5 4.6-5v-8.9H82zM79.5 19.2c-1.5 0-2.7-1.2-2.7-2.9s1.2-3 2.7-3 2.6 1.2 2.6 3C82.1 17.9 80.9 19.2 79.5 19.2z"/>
        <rect x="85.5" y="6.4" width="2.1" height="14.3"/>
        <path d="M93.4 19.2c-1.1 0-1.9-0.5-2.4-1.5l6.5-2.7 -0.2-0.6c-0.4-1.1-1.6-3.1-4.1-3.1 -2.5 0-4.6 1.9-4.6 4.9 0 2.8 2 4.9 4.8 4.9 2.2 0 3.5-1.4 4.1-2.2l-1.6-1.1C95.3 18.6 94.6 19.2 93.4 19.2zM93.3 13.2c0.8 0 1.5 0.4 1.8 1.1l-4.4 1.8C90.7 14.1 92.2 13.2 93.3 13.2z"/>
        <path d="M190.6 20.8V7.6h4.1c2 0 3.7 0.7 4.9 1.9s1.8 2.8 1.8 4.8 -0.6 3.6-1.8 4.8 -2.8 1.9-4.9 1.9L190.6 20.8 190.6 20.8zM192.3 19.2h2.4c1.5 0 2.8-0.4 3.7-1.3s1.3-2.1 1.3-3.7 -0.4-2.8-1.3-3.7 -2.1-1.3-3.7-1.3h-2.4V19.2z"/>
        <path d="M206.9 21c-1.4 0-2.4-0.5-3.3-1.4 -0.9-0.9-1.3-2-1.3-3.4 0-1.3 0.4-2.4 1.2-3.4s1.9-1.4 3.2-1.4c1.3 0 2.4 0.4 3.2 1.3s1.2 2 1.2 3.5v0.3H204c0.1 0.9 0.3 1.6 0.9 2.2 0.6 0.6 1.2 0.8 1.9 0.8 1.2 0 2-0.5 2.4-1.5l1.5 0.6c-0.3 0.7-0.8 1.3-1.5 1.8C208.7 20.8 207.9 21 206.9 21zM209.3 15.2c0-0.5-0.2-1-0.7-1.5 -0.4-0.5-1.1-0.7-1.9-0.7 -0.6 0-1.1 0.2-1.6 0.6s-0.8 0.9-1 1.6C204 15.2 209.3 15.2 209.3 15.2z"/>
        <path d="M212.3 20.8v-9.1h1.6V13h0.1c0.2-0.4 0.6-0.8 1.2-1.1s1.1-0.5 1.6-0.5c1.4 0 2.4 0.6 2.8 1.7 0.7-1.1 1.8-1.7 3.2-1.7 1.1 0 1.9 0.3 2.4 1.1 0.6 0.6 0.8 1.6 0.8 2.8v5.5h-1.7v-5.3c0-0.9-0.2-1.5-0.5-1.9 -0.3-0.4-0.8-0.6-1.5-0.6 -0.6 0-1.2 0.2-1.6 0.8 -0.4 0.6-0.6 1.2-0.6 1.9v5h-1.7v-5.3c0-0.9-0.2-1.5-0.5-1.9s-0.8-0.6-1.5-0.6c-0.6 0-1.2 0.2-1.6 0.8 -0.4 0.6-0.6 1.2-0.6 1.9v5L212.3 20.8 212.3 20.8z"/>
        <path d="M228.5 12.8c0.9-0.9 1.9-1.4 3.3-1.4 1.4 0 2.4 0.5 3.3 1.4 0.9 0.9 1.3 2 1.3 3.4s-0.4 2.5-1.3 3.4c-0.9 0.9-1.9 1.4-3.3 1.4 -1.4 0-2.4-0.5-3.3-1.4 -0.9-0.9-1.3-2-1.3-3.4S227.7 13.7 228.5 12.8zM229.8 18.6c0.6 0.6 1.3 0.9 2.1 0.9s1.5-0.3 2.1-0.9c0.6-0.6 0.9-1.4 0.9-2.4 0-1-0.3-1.8-0.9-2.4 -0.6-0.6-1.3-0.9-2.1-0.9s-1.5 0.3-2.1 0.9c-0.6 0.6-0.9 1.4-0.9 2.4C228.9 17.2 229.2 18 229.8 18.6z"/>
        <path d="M241 21c-1 0-1.9-0.2-2.5-0.7 -0.6-0.5-1.1-1.1-1.5-1.9l1.5-0.6c0.5 1.1 1.3 1.7 2.4 1.7 0.6 0 1-0.1 1.3-0.3s0.5-0.6 0.5-0.9c0-0.6-0.4-1-1.2-1.2l-1.8-0.4c-0.6-0.2-1.1-0.4-1.6-0.8s-0.8-1-0.8-1.7c0-0.8 0.3-1.5 1.1-1.9 0.7-0.5 1.5-0.7 2.5-0.7 0.8 0 1.5 0.2 2.1 0.6 0.6 0.3 1.1 0.9 1.4 1.5l-1.5 0.6c-0.3-0.8-1.1-1.2-2-1.2 -0.5 0-0.9 0.1-1.3 0.3 -0.3 0.2-0.5 0.5-0.5 0.8 0 0.5 0.4 0.9 1.2 1.1l1.8 0.4c0.8 0.2 1.5 0.6 1.9 1 0.4 0.5 0.6 1.1 0.6 1.6 0 0.8-0.3 1.5-1 2C242.9 20.8 242 21 241 21z"/>
        <path d="M260 16.1l-1.5 2.4 1.2 1.6 -1.3 1 -0.9-1.2c-0.9 0.8-1.9 1.2-3.1 1.2 -1.4 0-2.5-0.5-3.4-1.4 -1-0.9-1.4-2-1.4-3.3 0-0.7 0.2-1.5 0.6-2.2 0.4-0.7 1-1.3 1.7-1.7 -0.6-0.8-1-1.5-1-2.2 0-0.8 0.3-1.5 1-2.2 0.6-0.6 1.4-0.9 2.3-0.9 0.7 0 1.4 0.2 1.9 0.7s0.9 1 1.1 1.6l-1.5 0.8c-0.3-0.9-0.8-1.4-1.5-1.4 -0.4 0-0.7 0.2-1.1 0.4 -0.2 0.2-0.4 0.6-0.4 1.1 0 0.4 0.2 0.8 0.4 1.2l4.4 5.7 1.2-1.9L260 16.1zM254.5 19.5c0.9 0 1.5-0.3 2.1-0.9l-3.7-4.9c-0.5 0.2-0.9 0.6-1.2 1.1s-0.5 1-0.5 1.5c0 0.9 0.3 1.6 1 2.2C252.9 19.3 253.6 19.5 254.5 19.5z"/>
        <path d="M269.3 20.8h-1.7V9.2H264V7.6h9v1.6h-3.7V20.8z"/>
        <path d="M273.3 12.8c0.9-0.9 2-1.4 3.3-1.4s2.4 0.5 3.3 1.4c0.9 0.9 1.3 2 1.3 3.4s-0.4 2.5-1.3 3.4c-0.9 0.9-2 1.4-3.3 1.4s-2.4-0.5-3.3-1.4c-0.9-0.9-1.3-2-1.3-3.4S272.4 13.7 273.3 12.8zM274.6 18.6c0.6 0.6 1.3 0.9 2.1 0.9s1.5-0.3 2.1-0.9c0.6-0.6 0.9-1.4 0.9-2.4 0-1-0.3-1.8-0.9-2.4 -0.6-0.6-1.3-0.9-2.1-0.9s-1.5 0.3-2.1 0.9c-0.6 0.6-0.9 1.4-0.9 2.4S274 18 274.6 18.6z"/>
        <path d="M283.4 12.8c0.9-0.9 1.9-1.4 3.3-1.4 1.4 0 2.4 0.5 3.3 1.4 0.9 0.9 1.3 2 1.3 3.4s-0.4 2.5-1.3 3.4c-0.9 0.9-1.9 1.4-3.3 1.4 -1.4 0-2.4-0.5-3.3-1.4 -0.9-0.9-1.3-2-1.3-3.4C282 14.9 282.5 13.7 283.4 12.8zM284.6 18.6c0.6 0.6 1.3 0.9 2.1 0.9s1.5-0.3 2.1-0.9c0.6-0.6 0.9-1.4 0.9-2.4 0-1-0.3-1.8-0.9-2.4 -0.6-0.6-1.3-0.9-2.1-0.9s-1.5 0.3-2.1 0.9c-0.6 0.6-0.9 1.4-0.9 2.4C283.7 17.2 284.1 18 284.6 18.6z"/>
        <path d="M294.3 20.8h-1.7V7.6h1.7V20.8z"/>
        <path d="M299.3 21c-1 0-1.9-0.2-2.5-0.7 -0.6-0.5-1.1-1.1-1.5-1.9l1.5-0.6c0.5 1.1 1.3 1.7 2.4 1.7 0.6 0 1-0.1 1.3-0.3s0.5-0.6 0.5-0.9c0-0.6-0.4-1-1.2-1.2l-1.8-0.4c-0.6-0.2-1.1-0.4-1.6-0.8 -0.5-0.4-0.8-1-0.8-1.7 0-0.8 0.3-1.5 1.1-1.9 0.7-0.5 1.5-0.7 2.5-0.7 0.8 0 1.5 0.2 2.1 0.6 0.6 0.3 1.1 0.9 1.4 1.5l-1.5 0.6c-0.3-0.8-1.1-1.2-2-1.2 -0.5 0-0.9 0.1-1.3 0.3 -0.3 0.2-0.5 0.5-0.5 0.8 0 0.5 0.4 0.9 1.2 1.1l1.8 0.4c0.8 0.2 1.5 0.6 1.9 1 0.4 0.5 0.6 1.1 0.6 1.6 0 0.8-0.3 1.5-1 2C301.2 20.8 300.4 21 299.3 21z"/>
      </g>
    </g>

    <g id="google-analytics-text">
      <path class="st0" d="M53 12.2L57 1.3h1.6l4.1 10.8h-1.5l-1-2.9h-4.6l-1.1 2.9H53zM56 7.9h3.6L57.9 3h-0.1L56 7.9zM64.8 4.8v1h0.1c0.2-0.4 0.5-0.7 1-0.9 0.4-0.2 0.9-0.4 1.4-0.4 0.9 0 1.6 0.3 2.1 0.8C69.8 5.9 70 6.7 70 7.6v4.5h-1.4V7.8c0-1.4-0.6-2.1-1.8-2.1 -0.6 0-1 0.2-1.4 0.7 -0.4 0.5-0.5 1-0.5 1.6v4.1h-1.4V4.8H64.8zM73.7 12.4c-0.8 0-1.4-0.2-2-0.7 -0.5-0.5-0.8-1.1-0.8-1.8 0-0.8 0.3-1.4 0.9-1.9 0.6-0.5 1.4-0.7 2.3-0.7 0.8 0 1.5 0.2 2 0.5V7.6c0-0.5-0.2-1-0.6-1.3 -0.4-0.3-0.8-0.5-1.4-0.5 -0.4 0-0.8 0.1-1.1 0.3 -0.3 0.2-0.6 0.5-0.7 0.8l-1.3-0.5c0.2-0.4 0.5-0.9 1-1.2 0.5-0.4 1.2-0.6 2-0.6 0.9 0 1.7 0.3 2.4 0.8 0.6 0.6 0.9 1.3 0.9 2.3v4.5h-1.3v-1h-0.1C75.6 12 74.8 12.4 73.7 12.4zM73.9 11.1c0.6 0 1.1-0.2 1.6-0.6 0.5-0.4 0.7-0.9 0.7-1.5 -0.4-0.3-1-0.5-1.8-0.5 -0.7 0-1.2 0.1-1.5 0.4 -0.3 0.3-0.5 0.6-0.5 1 0 0.4 0.2 0.7 0.5 0.9C73.2 11 73.5 11.1 73.9 11.1zM80.2 12.2h-1.4V1.3h1.4V12.2zM83.7 15.4h-1.4l1.7-3.7 -3.1-6.9h1.5l2.2 5.3h0l2.1-5.3h1.5L83.7 15.4zM92.4 12.3c-0.8 0-1.4-0.2-1.8-0.6 -0.4-0.4-0.6-1-0.6-1.8V6h-1.3V4.8H90V2.5h1.4v2.3h1.8V6h-1.8v3.8c0 0.8 0.3 1.2 1 1.2 0.3 0 0.5 0 0.6-0.1l0.5 1.2C93.2 12.2 92.9 12.3 92.4 12.3zM95.7 2.9c-0.2 0.2-0.4 0.3-0.7 0.3 -0.3 0-0.5-0.1-0.7-0.3C94.1 2.7 94 2.5 94 2.2s0.1-0.5 0.3-0.7c0.2-0.2 0.4-0.3 0.7-0.3 0.3 0 0.5 0.1 0.7 0.3C95.9 1.7 96 1.9 96 2.2S95.9 2.7 95.7 2.9zM95.7 12.2h-1.4V4.8h1.4V12.2zM100.5 12.4c-1.1 0-2-0.4-2.7-1.1 -0.7-0.8-1.1-1.7-1.1-2.8 0-1.1 0.4-2.1 1.1-2.8 0.7-0.8 1.6-1.1 2.7-1.1 0.8 0 1.5 0.2 2.1 0.6 0.5 0.4 0.9 0.9 1.2 1.5l-1.3 0.5c-0.4-0.9-1.1-1.4-2.1-1.4 -0.6 0-1.2 0.3-1.6 0.8 -0.5 0.5-0.7 1.1-0.7 1.9 0 0.8 0.2 1.4 0.7 1.9 0.5 0.5 1 0.8 1.6 0.8 1 0 1.8-0.5 2.1-1.4l1.2 0.5c-0.3 0.6-0.7 1.1-1.2 1.5C102 12.2 101.3 12.4 100.5 12.4zM107.6 12.4c-0.8 0-1.5-0.2-2.1-0.6 -0.5-0.4-0.9-0.9-1.2-1.5l1.2-0.5c0.4 0.9 1.1 1.4 2 1.4 0.4 0 0.8-0.1 1.1-0.3 0.3-0.2 0.4-0.4 0.4-0.8 0-0.5-0.3-0.8-1-1l-1.5-0.4c-0.5-0.1-0.9-0.4-1.3-0.7 -0.4-0.3-0.6-0.8-0.6-1.4 0-0.7 0.3-1.2 0.9-1.6 0.6-0.4 1.3-0.6 2.1-0.6 0.7 0 1.2 0.1 1.8 0.4 0.5 0.3 0.9 0.7 1.1 1.3l-1.2 0.5c-0.3-0.7-0.8-1-1.7-1 -0.4 0-0.8 0.1-1 0.3 -0.3 0.2-0.4 0.4-0.4 0.7 0 0.4 0.3 0.7 1 0.9l1.5 0.3c0.7 0.2 1.2 0.4 1.5 0.8 0.3 0.4 0.5 0.8 0.5 1.3 0 0.7-0.3 1.2-0.8 1.7C109.2 12.2 108.5 12.4 107.6 12.4z"/>
      <path class="st0" d="M0 6.2C0 2.8 2.9 0 6.3 0c1.9 0 3.2 0.7 4.3 1.7L9.4 2.9C8.6 2.2 7.6 1.7 6.3 1.7c-2.5 0-4.5 2-4.5 4.5 0 2.5 2 4.5 4.5 4.5 1.6 0 2.5-0.7 3.1-1.2 0.5-0.5 0.8-1.2 0.9-2.1H6.3V5.6H12c0.1 0.3 0.1 0.7 0.1 1.1 0 1.3-0.3 2.8-1.5 4 -1.1 1.1-2.5 1.7-4.3 1.7C2.9 12.4 0 9.6 0 6.2zM16.7 4.4c-2.2 0-4 1.7-4 4 0 2.3 1.8 4 4 4 2.2 0 4-1.7 4-4C20.7 6.1 18.9 4.4 16.7 4.4zM16.7 10.8c-1.2 0-2.3-1-2.3-2.4 0-1.4 1-2.4 2.3-2.4C17.9 6 19 7 19 8.4 19 9.8 17.9 10.8 16.7 10.8zM25.5 4.4c-2.2 0-4 1.7-4 4 0 2.3 1.8 4 4 4 2.2 0 4-1.7 4-4C29.5 6.1 27.7 4.4 25.5 4.4zM25.5 10.8c-1.2 0-2.3-1-2.3-2.4 0-1.4 1-2.4 2.3-2.4 1.2 0 2.3 1 2.3 2.4C27.7 9.8 26.7 10.8 25.5 10.8zM36.2 4.7v0.7h-0.1C35.7 4.8 35 4.4 34 4.4c-2 0-3.8 1.8-3.8 4 0 2.2 1.8 4 3.8 4 1 0 1.7-0.4 2.1-0.9h0.1v0.6c0 1.5-0.8 2.3-2.1 2.3 -1.1 0-1.7-0.8-2-1.4l-1.5 0.6c0.4 1.1 1.6 2.4 3.5 2.4 2.1 0 3.8-1.2 3.8-4.2V4.7H36.2zM34.2 10.8c-1.2 0-2.2-1-2.2-2.4C32 7 33 6 34.2 6c1.2 0 2.1 1 2.1 2.4C36.3 9.8 35.4 10.8 34.2 10.8z"/>
      <rect x="39.1" y="0.4" class="st0" width="1.8" height="11.7"/>
      <path class="st0" d="M45.6 10.8c-0.9 0-1.5-0.4-1.9-1.2L49 7.4 48.9 7c-0.3-0.9-1.3-2.5-3.4-2.5 -2.1 0-3.8 1.6-3.8 4 0 2.2 1.7 4 4 4 1.8 0 2.9-1.1 3.3-1.8l-1.4-0.9C47.2 10.4 46.5 10.8 45.6 10.8zM45.5 6c0.7 0 1.3 0.3 1.5 0.8l-3.6 1.5C43.4 6.8 44.6 6 45.5 6z"/>
    </g>

    <g id="icon-bitly-logo">
      <desc>Created with Sketch.</desc>
      <path stroke="none" stroke-width="1" fill-rule="evenodd" d="M10.45212,0 C4.66641,0 0,4.64394 0,10.716825 C0,13.86567 1.684305,16.90794 4.052895,18.735675 C4.50891,19.08753 5.05218,19.0554 5.363505,18.75363 C5.626005,18.49932 5.60427,17.887065 5.116335,17.458035 C3.222765,15.792945 1.91373,13.272105 1.91373,10.75431 C1.91373,6.23217 5.929035,2.427075 10.45212,2.427075 C15.95769,2.427075 18.901785,6.898185 18.901785,10.687845 C18.901785,13.00341 17.769465,15.799245 15.72543,17.582565 C15.728475,17.574585 16.149945,16.74561 16.149945,15.131445 C16.149945,12.383805 14.408835,10.89522 12.388635,10.89522 C10.926195,10.89522 10.050705,11.418015 9.454725,11.90553 C9.454725,10.786335 9.49221,8.695995 9.49221,8.695995 C9.49221,7.3164 9.008895,6.212115 7.32438,6.187965 C6.34935,6.174105 5.6259,6.6213 5.17461,7.63224 C5.01207,8.01129 5.07192,8.423205 5.393325,8.609895 C5.65929,8.764245 6.096615,8.649795 6.313125,8.36094 C6.457605,8.18055 6.538665,8.14191 6.66435,8.155455 C6.871305,8.177715 6.87918,8.511195 6.88737,8.72445 C6.89367,8.888145 7.052745,11.2665 6.9657,17.378025 C6.9657,19.063695 8.28786,21 11.45361,21 C12.81651,21 13.863045,20.61906 15.383445,19.755225 C17.69754,18.44031 21,15.523515 21,10.590195 C21,4.42596 16.00788,0 10.45212,0 L10.45212,0 Z M11.7273215,18.374207 C10.5490433,18.3947387 9.68968969,18.0187068 9.63709548,16.9963963 C9.61735954,16.6127563 9.62365824,16.2042072 9.64244939,15.9578272 C9.75645599,14.4639135 10.80876,13.3890752 11.8474168,13.1827162 C13.1393866,12.9261224 14,13.5126821 14,15.1916935 C14,16.3263551 13.6826501,18.3402308 11.7273215,18.374207 L11.7273215,18.374207 Z" />
    </g>
  </defs>
</svg>
