<svg>
  <g id="icon-bitly-logo">
    <desc>Created with Sketch.</desc>
    <path stroke="none" stroke-width="1" fill-rule="evenodd" d="M10.45212,0 C4.66641,0 0,4.64394 0,10.716825 C0,13.86567 1.684305,16.90794 4.052895,18.735675 C4.50891,19.08753 5.05218,19.0554 5.363505,18.75363 C5.626005,18.49932 5.60427,17.887065 5.116335,17.458035 C3.222765,15.792945 1.91373,13.272105 1.91373,10.75431 C1.91373,6.23217 5.929035,2.427075 10.45212,2.427075 C15.95769,2.427075 18.901785,6.898185 18.901785,10.687845 C18.901785,13.00341 17.769465,15.799245 15.72543,17.582565 C15.728475,17.574585 16.149945,16.74561 16.149945,15.131445 C16.149945,12.383805 14.408835,10.89522 12.388635,10.89522 C10.926195,10.89522 10.050705,11.418015 9.454725,11.90553 C9.454725,10.786335 9.49221,8.695995 9.49221,8.695995 C9.49221,7.3164 9.008895,6.212115 7.32438,6.187965 C6.34935,6.174105 5.6259,6.6213 5.17461,7.63224 C5.01207,8.01129 5.07192,8.423205 5.393325,8.609895 C5.65929,8.764245 6.096615,8.649795 6.313125,8.36094 C6.457605,8.18055 6.538665,8.14191 6.66435,8.155455 C6.871305,8.177715 6.87918,8.511195 6.88737,8.72445 C6.89367,8.888145 7.052745,11.2665 6.9657,17.378025 C6.9657,19.063695 8.28786,21 11.45361,21 C12.81651,21 13.863045,20.61906 15.383445,19.755225 C17.69754,18.44031 21,15.523515 21,10.590195 C21,4.42596 16.00788,0 10.45212,0 L10.45212,0 Z M11.7273215,18.374207 C10.5490433,18.3947387 9.68968969,18.0187068 9.63709548,16.9963963 C9.61735954,16.6127563 9.62365824,16.2042072 9.64244939,15.9578272 C9.75645599,14.4639135 10.80876,13.3890752 11.8474168,13.1827162 C13.1393866,12.9261224 14,13.5126821 14,15.1916935 C14,16.3263551 13.6826501,18.3402308 11.7273215,18.374207 L11.7273215,18.374207 Z" />
  </g>
</svg>
