<svg xmlns="http://www.w3.org/2000/svg" xmlns:xlink="http://www.w3.org/1999/xlink" version="1.1">
  <defs>

    <g id="icon-add-circle">
      <path d="M17.016 12.984v-1.969h-4.031v-4.031h-1.969v4.031h-4.031v1.969h4.031v4.031h1.969v-4.031h4.031zM12 2.016q4.125 0 7.055 2.93t2.93 7.055-2.93 7.055-7.055 2.93-7.055-2.93-2.93-7.055 2.93-7.055 7.055-2.93z"></path>
    </g>

    <g id="icon-arrow-back">
      <path d="M20.016 11.016v1.969h-12.188l5.578 5.625-1.406 1.406-8.016-8.016 8.016-8.016 1.406 1.406-5.578 5.625h12.188z"></path>
    </g>

    <g id="icon-arrow-forward">
      <path d="M12 3.984l8.016 8.016-8.016 8.016-1.406-1.406 5.578-5.625h-12.188v-1.969h12.188l-5.578-5.625z"></path>
    </g>

    <g id="icon-call-made">
      <path d="M9 5.016h9.984v9.984h-1.969v-6.609l-11.625 11.625-1.406-1.406 11.625-11.625h-6.609v-1.969z"></path>
    </g>

    <g id="icon-check">
      <path d="M9 16.172l10.594-10.594 1.406 1.406-12 12-5.578-5.578 1.406-1.406z"></path>
    </g>

    <g id="icon-content-paste">
      <path d="M19 2h-4.18C14.4.84 13.3 0 12 0c-1.3 0-2.4.84-2.82 2H5c-1.1 0-2 .9-2 2v16c0 1.1.9 2 2 2h14c1.1 0 2-.9 2-2V4c0-1.1-.9-2-2-2zm-7 0c.55 0 1 .45 1 1s-.45 1-1 1-1-.45-1-1 .45-1 1-1zm7 18H5V4h2v3h10V4h2v16z"/>
    </g>

    <g id="icon-close">
      <path d="M19 6.41L17.59 5 12 10.59 6.41 5 5 6.41 10.59 12 5 17.59 6.41 19 12 13.41 17.59 19 19 17.59 13.41 12z"/>
    </g>

    <g id="icon-error-outline">
      <path d="M12 20.016q3.281 0 5.648-2.367t2.367-5.648-2.367-5.648-5.648-2.367-5.648 2.367-2.367 5.648 2.367 5.648 5.648 2.367zM12 2.016q4.125 0 7.055 2.93t2.93 7.055-2.93 7.055-7.055 2.93-7.055-2.93-2.93-7.055 2.93-7.055 7.055-2.93zM11.016 6.984h1.969v6h-1.969v-6zM11.016 15h1.969v2.016h-1.969v-2.016z"></path>
    </g>

    <g id="icon-event">
      <path d="M18.984 18.984v-10.969h-13.969v10.969h13.969zM15.984 0.984h2.016v2.016h0.984q0.797 0 1.406 0.609t0.609 1.406v13.969q0 0.797-0.609 1.406t-1.406 0.609h-13.969q-0.844 0-1.43-0.609t-0.586-1.406v-13.969q0-0.797 0.586-1.406t1.43-0.609h0.984v-2.016h2.016v2.016h7.969v-2.016zM17.016 12v5.016h-5.016v-5.016h5.016z"></path>
    </g>

    <g id="icon-file-download">
      <path d="M5.016 18h13.969v2.016h-13.969v-2.016zM18.984 9l-6.984 6.984-6.984-6.984h3.984v-6h6v6h3.984z"></path>
    </g>

    <g id="icon-home">
      <path d="M9.984 20.016h-4.969v-8.016h-3l9.984-9 9.984 9h-3v8.016h-4.969v-6h-4.031v6z"></path>
    </g>

    <g id="icon-info-outline">
      <path d="M11.016 9v-2.016h1.969v2.016h-1.969zM12 20.016q3.281 0 5.648-2.367t2.367-5.648-2.367-5.648-5.648-2.367-5.648 2.367-2.367 5.648 2.367 5.648 5.648 2.367zM12 2.016q4.125 0 7.055 2.93t2.93 7.055-2.93 7.055-7.055 2.93-7.055-2.93-2.93-7.055 2.93-7.055 7.055-2.93zM11.016 17.016v-6h1.969v6h-1.969z"></path>
    </g>

    <g id="icon-link">
      <path d="M3.9 12c0-1.71 1.39-3.1 3.1-3.1h4V7H7c-2.76 0-5 2.24-5 5s2.24 5 5 5h4v-1.9H7c-1.71 0-3.1-1.39-3.1-3.1zM8 13h8v-2H8v2zm9-6h-4v1.9h4c1.71 0 3.1 1.39 3.1 3.1s-1.39 3.1-3.1 3.1h-4V17h4c2.76 0 5-2.24 5-5s-2.24-5-5-5z"/>
    </g>

    <g id="icon-menu">
      <path d="M3 6h18v2.016h-18v-2.016zM3 12.984v-1.969h18v1.969h-18zM3 18v-2.016h18v2.016h-18z"></path>
    </g>

    <g id="icon-person">
      <path d="M12 14.016q2.531 0 5.273 1.102t2.742 2.883v2.016h-16.031v-2.016q0-1.781 2.742-2.883t5.273-1.102zM12 12q-1.641 0-2.813-1.172t-1.172-2.813 1.172-2.836 2.813-1.195 2.813 1.195 1.172 2.836-1.172 2.813-2.813 1.172z"></path>
    </g>

    <g id="icon-remove-circle">
      <path d="M17.016 12.984v-1.969h-10.031v1.969h10.031zM12 2.016q4.125 0 7.055 2.93t2.93 7.055-2.93 7.055-7.055 2.93-7.055-2.93-2.93-7.055 2.93-7.055 7.055-2.93z"></path>
    </g>

    <g id="icon-refresh">
      <path d="M17.65 6.35C16.2 4.9 14.21 4 12 4c-4.42 0-7.99 3.58-7.99 8s3.57 8 7.99 8c3.73 0 6.84-2.55 7.73-6h-2.08c-.82 2.33-3.04 4-5.65 4-3.31 0-6-2.69-6-6s2.69-6 6-6c1.66 0 3.14.69 4.22 1.78L13 11h7V4l-2.35 2.35z"/>
    </g>

    <g id="icon-send">
      <path d="M2.01 21L23 12 2.01 3 2 10l15 2-15 2z"/>
    </g>

    <g id="icon-warning">
      <path d="M1 21h22L12 2 1 21zm12-3h-2v-2h2v2zm0-4h-2v-4h2v4z"/>
    </g>

    <g id="ga-mark-solid">
      <path d="M16 26.67l-7.11-7.11L0 28.45v0.89c0 0.1 0.01 0.2 0.02 0.3C0.17 30.97 1.3 32 2.67 32h26.67c1.37 0 2.5-1.03 2.65-2.37 0.01-0.1 0.02-0.2 0.02-0.3V10.67L16 26.67zM29.33 0L29.33 0h0H2.67 2.67h0C1.19 0 0 1.19 0 2.67v18.67l8.89-8.89L16 19.56 32 3.56V2.67C32 1.19 30.81 0 29.33 0"/>
    </g>

    <g id="ga-developer-logo">
      <g id="ga-developer-logo-mark">
        <circle fill="#f7991c" cx="16" cy="16" r="16"/>
        <path fill="#f05721" d="M32 16c0-0.3 0-0.6 0-0.9L25.9 9 9.4 25.4 16 32C24.8 32 32 24.8 32 16z"/>
        <path fill="#FFFFFF" d="M21.5 23.2c0.4-0.3 0.8-0.6 1.2-1 0.4-0.4 0.7-0.8 1-1.2l2.6 0.5 0.8-0.5 1-4 -0.5-0.9 -2.5-1C25 14 24.7 13 24.3 12l1.6-2 0-1 -3-3 -1 0 -2.1 1.6c-1-0.5-2-0.8-3.1-0.9l-1-2.5 -0.9-0.5 -4 1 -0.5 0.8L10.7 8c-0.4 0.3-0.8 0.6-1.2 1 -0.4 0.4-0.7 0.8-1 1.2L5.9 9.8 5 10.3l-1 4 0.5 0.9 2.5 1c0.1 1.1 0.4 2.1 0.9 3.1l-1.6 2 0 1 3 3 1 0 2-1.6c1 0.5 2 0.8 3.1 0.9l1 2.5 0.9 0.5 4-1 0.5-0.8L21.5 23.2z"/>
        <path fill="#f05721" d="M19.7 15.6c0 2-1.6 3.6-3.6 3.6s-3.6-1.6-3.6-3.6c0-2 1.6-3.6 3.6-3.6S19.7 13.7 19.7 15.6z"/>
        <path fill="#f7991c" d="M13.6 18.2c-0.7-0.6-1.1-1.5-1.1-2.5 0-2 1.6-3.6 3.6-3.6 1 0 1.9 0.4 2.5 1.1l1.5-1.5c-1.1-1.1-2.5-1.7-4.1-1.7 -3.1 0-5.7 2.5-5.7 5.7 0 1.6 0.7 3 1.7 4.1L13.6 18.2z"/>
      </g>
      <g id="ga-developer-logo-text">
        <path d="M126 25.6l6.1-16.3h2.4l6.1 16.3h-2.3l-1.6-4.4h-6.8l-1.6 4.4H126zM130.6 19.2h5.4l-2.7-7.3h-0.1L130.6 19.2z"/>
        <path d="M143.7 14.4V16h0.1c0.3-0.5 0.8-1 1.4-1.4 0.7-0.4 1.3-0.6 2.1-0.6 1.4 0 2.4 0.4 3.2 1.3 0.7 0.8 1.1 2 1.1 3.4v6.8h-2.1v-6.5c0-2.1-0.9-3.1-2.7-3.1 -0.9 0-1.6 0.3-2.1 1 -0.5 0.7-0.8 1.5-0.8 2.4v6.2h-2.1V14.4H143.7z"/>
        <path d="M157.1 25.9c-1.2 0-2.2-0.3-3-1 -0.8-0.7-1.2-1.6-1.2-2.7 0-1.2 0.5-2.2 1.4-2.8 0.9-0.7 2.1-1 3.5-1 1.2 0 2.2 0.2 3 0.7v-0.3c0-0.8-0.3-1.5-0.8-2 -0.6-0.5-1.2-0.7-2.1-0.7 -0.6 0-1.2 0.1-1.6 0.4 -0.5 0.3-0.8 0.7-1 1.2l-1.9-0.8c0.3-0.7 0.8-1.3 1.5-1.9 0.8-0.6 1.8-0.9 3-0.9 1.4 0 2.6 0.4 3.5 1.2 0.9 0.8 1.4 2 1.4 3.5v6.7h-2V24h-0.1C159.9 25.3 158.7 25.9 157.1 25.9zM157.4 24c0.9 0 1.6-0.3 2.3-1 0.7-0.6 1.1-1.4 1.1-2.3 -0.6-0.5-1.5-0.7-2.7-0.7 -1 0-1.8 0.2-2.3 0.7 -0.5 0.4-0.8 1-0.8 1.5 0 0.5 0.2 1 0.7 1.3C156.3 23.9 156.8 24 157.4 24z"/>
        <path d="M166.9 25.6h-2.1V9.3h2.1V25.6z"/>
        <path d="M172 30.5h-2.2l2.6-5.6 -4.6-10.4h2.3l3.3 8h0l3.2-8h2.3L172 30.5z"/>
        <path d="M185.2 25.7c-1.2 0-2.1-0.3-2.7-0.9 -0.6-0.6-0.9-1.5-0.9-2.6v-5.8h-2v-1.9h2V11h2.1v3.4h2.7v1.9h-2.7V22c0 1.2 0.5 1.8 1.5 1.8 0.4 0 0.7-0.1 1-0.2l0.7 1.8C186.4 25.6 185.9 25.7 185.2 25.7z"/>
        <path d="M190.1 11.6c-0.3 0.3-0.6 0.4-1 0.4 -0.4 0-0.8-0.1-1-0.4 -0.3-0.3-0.4-0.6-0.4-1 0-0.4 0.1-0.8 0.4-1 0.3-0.3 0.6-0.4 1-0.4 0.4 0 0.8 0.1 1 0.4 0.3 0.3 0.4 0.6 0.4 1C190.5 11 190.4 11.4 190.1 11.6zM190.1 25.6H188V14.4h2.1V25.6z"/>
        <path d="M197.3 25.9c-1.7 0-3-0.6-4.1-1.7 -1.1-1.1-1.6-2.5-1.6-4.2 0-1.7 0.5-3.1 1.6-4.2 1.1-1.1 2.4-1.7 4.1-1.7 1.2 0 2.3 0.3 3.1 0.9 0.8 0.6 1.4 1.4 1.8 2.3l-1.9 0.8c-0.6-1.4-1.6-2.1-3.1-2.1 -0.9 0-1.7 0.4-2.4 1.1 -0.7 0.8-1.1 1.7-1.1 2.9 0 1.2 0.4 2.1 1.1 2.9 0.7 0.8 1.5 1.1 2.4 1.1 1.6 0 2.6-0.7 3.2-2.1l1.9 0.8c-0.4 0.9-1 1.7-1.8 2.3C199.6 25.6 198.6 25.9 197.3 25.9z"/>
        <path d="M208 25.9c-1.2 0-2.3-0.3-3.1-0.9 -0.8-0.6-1.4-1.4-1.8-2.3L205 22c0.6 1.4 1.6 2.1 3 2.1 0.7 0 1.2-0.1 1.6-0.4 0.4-0.3 0.6-0.7 0.6-1.1 0-0.7-0.5-1.2-1.5-1.5l-2.2-0.5c-0.7-0.2-1.4-0.5-2-1 -0.6-0.5-1-1.2-1-2.1 0-1 0.4-1.8 1.3-2.4 0.9-0.6 1.9-0.9 3.1-0.9 1 0 1.9 0.2 2.6 0.7 0.8 0.4 1.3 1.1 1.7 1.9l-1.8 0.7c-0.4-1-1.3-1.5-2.5-1.5 -0.6 0-1.1 0.1-1.6 0.4 -0.4 0.3-0.6 0.6-0.6 1 0 0.6 0.5 1.1 1.5 1.3l2.2 0.5c1 0.2 1.8 0.7 2.3 1.2 0.5 0.6 0.7 1.3 0.7 2 0 1-0.4 1.8-1.2 2.5C210.3 25.6 209.3 25.9 208 25.9z"/>
        <rect opacity=".5" x="222.3" y="7.9" width="1.9" height="20.4"/>
        <path d="M46.6 16.6c0-5.1 4.3-9.3 9.4-9.3 2.8 0 4.9 1.1 6.4 2.6l-1.8 1.8c-1.1-1-2.6-1.8-4.6-1.8 -3.7 0-6.7 3-6.7 6.8 0 3.7 2.9 6.8 6.7 6.8 2.4 0 3.8-1 4.7-1.9 0.7-0.7 1.2-1.8 1.4-3.2H56v-2.5h8.6c0.1 0.5 0.1 1 0.1 1.6 0 1.9-0.5 4.3-2.2 5.9 -1.6 1.7-3.7 2.6-6.5 2.6C50.9 25.9 46.6 21.8 46.6 16.6z"/>
        <path d="M71.6 13.9c-3.3 0-6 2.5-6 6 0 3.5 2.7 6 6 6 3.3 0 6-2.5 6-6C77.6 16.5 74.9 13.9 71.6 13.9zM71.6 23.6c-1.8 0-3.4-1.5-3.4-3.6 0-2.2 1.6-3.6 3.4-3.6 1.8 0 3.4 1.5 3.4 3.6C75 22.1 73.4 23.6 71.6 23.6z"/>
        <path d="M84.7 13.9c-3.3 0-6 2.5-6 6 0 3.5 2.7 6 6 6 3.3 0 6-2.5 6-6C90.8 16.5 88.1 13.9 84.7 13.9zM84.7 23.6c-1.8 0-3.4-1.5-3.4-3.6 0-2.2 1.6-3.6 3.4-3.6s3.4 1.5 3.4 3.6C88.1 22.1 86.6 23.6 84.7 23.6z"/>
        <path d="M100.9 14.3v1h-0.1c-0.6-0.7-1.7-1.3-3.2-1.3 -3 0-5.7 2.6-5.7 6 0 3.4 2.7 6 5.7 6 1.4 0 2.6-0.6 3.2-1.4h0.1v0.9c0 2.3-1.2 3.5-3.2 3.5 -1.6 0-2.6-1.2-3-2.1l-2.3 1c0.7 1.6 2.4 3.5 5.3 3.5 3.1 0 5.7-1.8 5.7-6.2V14.3H100.9zM97.8 23.6c-1.8 0-3.3-1.5-3.3-3.6 0-2.1 1.5-3.7 3.3-3.7 1.8 0 3.2 1.5 3.2 3.7C101 22 99.6 23.6 97.8 23.6z"/>
        <rect x="105.2" y="7.9" width="2.6" height="17.6"/>
        <path d="M115 23.6c-1.3 0-2.3-0.6-2.9-1.8l8-3.3 -0.3-0.7c-0.5-1.3-2-3.8-5.1-3.8 -3.1 0-5.7 2.4-5.7 6 0 3.4 2.5 6 5.9 6 2.7 0 4.3-1.7 5-2.7l-2-1.4C117.3 22.9 116.4 23.6 115 23.6zM114.8 16.3c1 0 1.9 0.5 2.2 1.3l-5.4 2.2C111.6 17.4 113.5 16.3 114.8 16.3z"/>
        <path d="M234.6 25.6V9.3h5c2.5 0 4.5 0.8 6 2.3 1.5 1.5 2.2 3.5 2.2 5.9 0 2.4-0.7 4.4-2.2 5.9 -1.5 1.5-3.5 2.3-6 2.3H234.6zM236.7 23.6h2.9c1.9 0 3.4-0.5 4.5-1.6 1.1-1.1 1.6-2.6 1.6-4.5 0-1.9-0.5-3.4-1.6-4.5 -1.1-1.1-2.6-1.6-4.5-1.6h-2.9V23.6z"/>
        <path d="M254.7 25.9c-1.7 0-3-0.6-4.1-1.7 -1.1-1.1-1.6-2.5-1.6-4.2 0-1.6 0.5-3 1.5-4.2 1-1.2 2.3-1.7 3.9-1.7 1.6 0 3 0.5 4 1.6 1 1.1 1.5 2.5 1.5 4.3l0 0.4h-8.8c0.1 1.1 0.4 2 1.1 2.7 0.7 0.7 1.5 1 2.4 1 1.5 0 2.5-0.6 3-1.9l1.9 0.8c-0.4 0.9-1 1.6-1.8 2.2C256.9 25.6 255.9 25.9 254.7 25.9zM257.6 18.7c0-0.6-0.3-1.2-0.9-1.8 -0.5-0.6-1.3-0.9-2.4-0.9 -0.8 0-1.4 0.2-2 0.7 -0.6 0.5-1 1.1-1.2 2H257.6z"/>
        <path d="M261.3 25.6V14.4h2V16h0.1c0.3-0.5 0.8-1 1.5-1.4 0.7-0.4 1.3-0.6 2-0.6 1.7 0 2.9 0.7 3.5 2.1 0.9-1.4 2.2-2.1 3.9-2.1 1.3 0 2.3 0.4 3 1.3 0.7 0.8 1 2 1 3.4v6.8h-2.1v-6.5c0-1.1-0.2-1.9-0.6-2.4 -0.4-0.5-1-0.7-1.9-0.7 -0.8 0-1.5 0.3-2 1 -0.5 0.7-0.8 1.5-0.8 2.4v6.2h-2.1v-6.5c0-1.1-0.2-1.9-0.6-2.4 -0.4-0.5-1-0.7-1.9-0.7 -0.8 0-1.5 0.3-2 1 -0.5 0.7-0.8 1.5-0.8 2.4v6.2H261.3z"/>
        <path d="M281.2 15.8c1.1-1.1 2.4-1.7 4.1-1.7 1.7 0 3 0.6 4.1 1.7 1.1 1.1 1.6 2.5 1.6 4.2 0 1.7-0.5 3.1-1.6 4.2 -1.1 1.1-2.4 1.7-4.1 1.7 -1.7 0-3-0.6-4.1-1.7 -1.1-1.1-1.6-2.5-1.6-4.2C279.6 18.3 280.2 16.9 281.2 15.8zM282.8 22.9c0.7 0.7 1.6 1.1 2.6 1.1 1 0 1.8-0.4 2.6-1.1 0.7-0.7 1.1-1.7 1.1-2.9 0-1.2-0.4-2.2-1.1-2.9 -0.7-0.7-1.6-1.1-2.6-1.1 -1 0-1.8 0.4-2.6 1.1 -0.7 0.7-1.1 1.7-1.1 2.9C281.7 21.2 282.1 22.2 282.8 22.9z"/>
        <path d="M296.6 25.9c-1.2 0-2.3-0.3-3.1-0.9 -0.8-0.6-1.4-1.4-1.8-2.3l1.9-0.8c0.6 1.4 1.6 2.1 3 2.1 0.7 0 1.2-0.1 1.6-0.4 0.4-0.3 0.6-0.7 0.6-1.1 0-0.7-0.5-1.2-1.5-1.5l-2.2-0.5c-0.7-0.2-1.4-0.5-2-1 -0.6-0.5-1-1.2-1-2.1 0-1 0.4-1.8 1.3-2.4 0.9-0.6 1.9-0.9 3.1-0.9 1 0 1.9 0.2 2.6 0.7 0.8 0.4 1.3 1.1 1.7 1.9l-1.8 0.7c-0.4-1-1.3-1.5-2.5-1.5 -0.6 0-1.1 0.1-1.6 0.4 -0.4 0.3-0.6 0.6-0.6 1 0 0.6 0.5 1.1 1.5 1.3l2.2 0.5c1 0.2 1.8 0.7 2.3 1.2 0.5 0.6 0.7 1.3 0.7 2 0 1-0.4 1.8-1.2 2.5C298.9 25.6 297.9 25.9 296.6 25.9z"/>
        <path d="M320 19.8l-1.9 3 1.5 2 -1.6 1.2 -1.1-1.5c-1.1 1-2.3 1.5-3.8 1.5 -1.7 0-3.1-0.6-4.2-1.7 -1.2-1.1-1.7-2.5-1.7-4.1 0-0.9 0.2-1.8 0.7-2.7 0.5-0.9 1.2-1.6 2.1-2.1 -0.8-1-1.2-1.9-1.2-2.7 0-1 0.4-1.9 1.2-2.7 0.8-0.7 1.7-1.1 2.8-1.1 0.9 0 1.7 0.3 2.3 0.8 0.6 0.5 1.1 1.2 1.3 2l-1.8 1c-0.4-1.1-1-1.7-1.8-1.7 -0.5 0-0.9 0.2-1.3 0.5 -0.3 0.3-0.5 0.7-0.5 1.3 0 0.5 0.2 1 0.5 1.5l5.4 7 1.5-2.4L320 19.8zM313.2 24c1.1 0 1.9-0.4 2.6-1.1l-4.6-6c-0.6 0.3-1.1 0.8-1.5 1.4 -0.4 0.6-0.6 1.2-0.6 1.9 0 1.1 0.4 2 1.2 2.7C311.2 23.7 312.1 24 313.2 24z"/>
        <path d="M331.5 25.6h-2.1V11.3h-4.5v-2H336v2h-4.5V25.6z"/>
        <path d="M336.4 15.8c1.1-1.1 2.4-1.7 4.1-1.7 1.7 0 3 0.6 4.1 1.7 1.1 1.1 1.6 2.5 1.6 4.2 0 1.7-0.5 3.1-1.6 4.2 -1.1 1.1-2.4 1.7-4.1 1.7 -1.7 0-3-0.6-4.1-1.7 -1.1-1.1-1.6-2.5-1.6-4.2C334.8 18.3 335.3 16.9 336.4 15.8zM338 22.9c0.7 0.7 1.6 1.1 2.6 1.1 1 0 1.8-0.4 2.6-1.1 0.7-0.7 1.1-1.7 1.1-2.9 0-1.2-0.4-2.2-1.1-2.9 -0.7-0.7-1.6-1.1-2.6-1.1 -1 0-1.8 0.4-2.6 1.1 -0.7 0.7-1.1 1.7-1.1 2.9C336.9 21.2 337.2 22.2 338 22.9z"/>
        <path d="M348.8 15.8c1.1-1.1 2.4-1.7 4.1-1.7 1.7 0 3 0.6 4.1 1.7 1.1 1.1 1.6 2.5 1.6 4.2 0 1.7-0.5 3.1-1.6 4.2 -1.1 1.1-2.4 1.7-4.1 1.7 -1.7 0-3-0.6-4.1-1.7 -1.1-1.1-1.6-2.5-1.6-4.2C347.1 18.3 347.7 16.9 348.8 15.8zM350.3 22.9c0.7 0.7 1.6 1.1 2.6 1.1 1 0 1.8-0.4 2.6-1.1 0.7-0.7 1.1-1.7 1.1-2.9 0-1.2-0.4-2.2-1.1-2.9 -0.7-0.7-1.6-1.1-2.6-1.1 -1 0-1.8 0.4-2.6 1.1 -0.7 0.7-1.1 1.7-1.1 2.9C349.2 21.2 349.6 22.2 350.3 22.9z"/>
        <path d="M362.2 25.6h-2.1V9.3h2.1V25.6z"/>
        <path d="M368.4 25.9c-1.2 0-2.3-0.3-3.1-0.9 -0.8-0.6-1.4-1.4-1.8-2.3l1.9-0.8c0.6 1.4 1.6 2.1 3 2.1 0.7 0 1.2-0.1 1.6-0.4 0.4-0.3 0.6-0.7 0.6-1.1 0-0.7-0.5-1.2-1.5-1.5l-2.2-0.5c-0.7-0.2-1.4-0.5-2-1 -0.6-0.5-1-1.2-1-2.1 0-1 0.4-1.8 1.3-2.4 0.9-0.6 1.9-0.9 3.1-0.9 1 0 1.9 0.2 2.6 0.7 0.8 0.4 1.3 1.1 1.7 1.9l-1.8 0.7c-0.4-1-1.3-1.5-2.5-1.5 -0.6 0-1.1 0.1-1.6 0.4 -0.4 0.3-0.6 0.6-0.6 1 0 0.6 0.5 1.1 1.5 1.3l2.2 0.5c1 0.2 1.8 0.7 2.3 1.2 0.5 0.6 0.7 1.3 0.7 2 0 1-0.4 1.8-1.2 2.5C370.7 25.6 369.7 25.9 368.4 25.9z"/>
      </g>
    </g>

    <g id="google-analytics-text">
      <path class="st0" d="M53 12.2L57 1.3h1.6l4.1 10.8h-1.5l-1-2.9h-4.6l-1.1 2.9H53zM56 7.9h3.6L57.9 3h-0.1L56 7.9zM64.8 4.8v1h0.1c0.2-0.4 0.5-0.7 1-0.9 0.4-0.2 0.9-0.4 1.4-0.4 0.9 0 1.6 0.3 2.1 0.8C69.8 5.9 70 6.7 70 7.6v4.5h-1.4V7.8c0-1.4-0.6-2.1-1.8-2.1 -0.6 0-1 0.2-1.4 0.7 -0.4 0.5-0.5 1-0.5 1.6v4.1h-1.4V4.8H64.8zM73.7 12.4c-0.8 0-1.4-0.2-2-0.7 -0.5-0.5-0.8-1.1-0.8-1.8 0-0.8 0.3-1.4 0.9-1.9 0.6-0.5 1.4-0.7 2.3-0.7 0.8 0 1.5 0.2 2 0.5V7.6c0-0.5-0.2-1-0.6-1.3 -0.4-0.3-0.8-0.5-1.4-0.5 -0.4 0-0.8 0.1-1.1 0.3 -0.3 0.2-0.6 0.5-0.7 0.8l-1.3-0.5c0.2-0.4 0.5-0.9 1-1.2 0.5-0.4 1.2-0.6 2-0.6 0.9 0 1.7 0.3 2.4 0.8 0.6 0.6 0.9 1.3 0.9 2.3v4.5h-1.3v-1h-0.1C75.6 12 74.8 12.4 73.7 12.4zM73.9 11.1c0.6 0 1.1-0.2 1.6-0.6 0.5-0.4 0.7-0.9 0.7-1.5 -0.4-0.3-1-0.5-1.8-0.5 -0.7 0-1.2 0.1-1.5 0.4 -0.3 0.3-0.5 0.6-0.5 1 0 0.4 0.2 0.7 0.5 0.9C73.2 11 73.5 11.1 73.9 11.1zM80.2 12.2h-1.4V1.3h1.4V12.2zM83.7 15.4h-1.4l1.7-3.7 -3.1-6.9h1.5l2.2 5.3h0l2.1-5.3h1.5L83.7 15.4zM92.4 12.3c-0.8 0-1.4-0.2-1.8-0.6 -0.4-0.4-0.6-1-0.6-1.8V6h-1.3V4.8H90V2.5h1.4v2.3h1.8V6h-1.8v3.8c0 0.8 0.3 1.2 1 1.2 0.3 0 0.5 0 0.6-0.1l0.5 1.2C93.2 12.2 92.9 12.3 92.4 12.3zM95.7 2.9c-0.2 0.2-0.4 0.3-0.7 0.3 -0.3 0-0.5-0.1-0.7-0.3C94.1 2.7 94 2.5 94 2.2s0.1-0.5 0.3-0.7c0.2-0.2 0.4-0.3 0.7-0.3 0.3 0 0.5 0.1 0.7 0.3C95.9 1.7 96 1.9 96 2.2S95.9 2.7 95.7 2.9zM95.7 12.2h-1.4V4.8h1.4V12.2zM100.5 12.4c-1.1 0-2-0.4-2.7-1.1 -0.7-0.8-1.1-1.7-1.1-2.8 0-1.1 0.4-2.1 1.1-2.8 0.7-0.8 1.6-1.1 2.7-1.1 0.8 0 1.5 0.2 2.1 0.6 0.5 0.4 0.9 0.9 1.2 1.5l-1.3 0.5c-0.4-0.9-1.1-1.4-2.1-1.4 -0.6 0-1.2 0.3-1.6 0.8 -0.5 0.5-0.7 1.1-0.7 1.9 0 0.8 0.2 1.4 0.7 1.9 0.5 0.5 1 0.8 1.6 0.8 1 0 1.8-0.5 2.1-1.4l1.2 0.5c-0.3 0.6-0.7 1.1-1.2 1.5C102 12.2 101.3 12.4 100.5 12.4zM107.6 12.4c-0.8 0-1.5-0.2-2.1-0.6 -0.5-0.4-0.9-0.9-1.2-1.5l1.2-0.5c0.4 0.9 1.1 1.4 2 1.4 0.4 0 0.8-0.1 1.1-0.3 0.3-0.2 0.4-0.4 0.4-0.8 0-0.5-0.3-0.8-1-1l-1.5-0.4c-0.5-0.1-0.9-0.4-1.3-0.7 -0.4-0.3-0.6-0.8-0.6-1.4 0-0.7 0.3-1.2 0.9-1.6 0.6-0.4 1.3-0.6 2.1-0.6 0.7 0 1.2 0.1 1.8 0.4 0.5 0.3 0.9 0.7 1.1 1.3l-1.2 0.5c-0.3-0.7-0.8-1-1.7-1 -0.4 0-0.8 0.1-1 0.3 -0.3 0.2-0.4 0.4-0.4 0.7 0 0.4 0.3 0.7 1 0.9l1.5 0.3c0.7 0.2 1.2 0.4 1.5 0.8 0.3 0.4 0.5 0.8 0.5 1.3 0 0.7-0.3 1.2-0.8 1.7C109.2 12.2 108.5 12.4 107.6 12.4z"/>
      <path class="st0" d="M0 6.2C0 2.8 2.9 0 6.3 0c1.9 0 3.2 0.7 4.3 1.7L9.4 2.9C8.6 2.2 7.6 1.7 6.3 1.7c-2.5 0-4.5 2-4.5 4.5 0 2.5 2 4.5 4.5 4.5 1.6 0 2.5-0.7 3.1-1.2 0.5-0.5 0.8-1.2 0.9-2.1H6.3V5.6H12c0.1 0.3 0.1 0.7 0.1 1.1 0 1.3-0.3 2.8-1.5 4 -1.1 1.1-2.5 1.7-4.3 1.7C2.9 12.4 0 9.6 0 6.2zM16.7 4.4c-2.2 0-4 1.7-4 4 0 2.3 1.8 4 4 4 2.2 0 4-1.7 4-4C20.7 6.1 18.9 4.4 16.7 4.4zM16.7 10.8c-1.2 0-2.3-1-2.3-2.4 0-1.4 1-2.4 2.3-2.4C17.9 6 19 7 19 8.4 19 9.8 17.9 10.8 16.7 10.8zM25.5 4.4c-2.2 0-4 1.7-4 4 0 2.3 1.8 4 4 4 2.2 0 4-1.7 4-4C29.5 6.1 27.7 4.4 25.5 4.4zM25.5 10.8c-1.2 0-2.3-1-2.3-2.4 0-1.4 1-2.4 2.3-2.4 1.2 0 2.3 1 2.3 2.4C27.7 9.8 26.7 10.8 25.5 10.8zM36.2 4.7v0.7h-0.1C35.7 4.8 35 4.4 34 4.4c-2 0-3.8 1.8-3.8 4 0 2.2 1.8 4 3.8 4 1 0 1.7-0.4 2.1-0.9h0.1v0.6c0 1.5-0.8 2.3-2.1 2.3 -1.1 0-1.7-0.8-2-1.4l-1.5 0.6c0.4 1.1 1.6 2.4 3.5 2.4 2.1 0 3.8-1.2 3.8-4.2V4.7H36.2zM34.2 10.8c-1.2 0-2.2-1-2.2-2.4C32 7 33 6 34.2 6c1.2 0 2.1 1 2.1 2.4C36.3 9.8 35.4 10.8 34.2 10.8z"/>
      <rect x="39.1" y="0.4" class="st0" width="1.8" height="11.7"/>
      <path class="st0" d="M45.6 10.8c-0.9 0-1.5-0.4-1.9-1.2L49 7.4 48.9 7c-0.3-0.9-1.3-2.5-3.4-2.5 -2.1 0-3.8 1.6-3.8 4 0 2.2 1.7 4 4 4 1.8 0 2.9-1.1 3.3-1.8l-1.4-0.9C47.2 10.4 46.5 10.8 45.6 10.8zM45.5 6c0.7 0 1.3 0.3 1.5 0.8l-3.6 1.5C43.4 6.8 44.6 6 45.5 6z"/>
    </g>

  </defs>
</svg>
